<svg width="18" height="18" viewBox="0 0 18 18" fill="none" xmlns="http://www.w3.org/2000/svg">
<path fill-rule="evenodd" clip-rule="evenodd" d="M9 1.49089C9.58458 1.49089 10.1468 1.58648 10.672 1.76284C10.6879 1.7437 10.7049 1.72517 10.7229 1.70733L11.4729 0.96644C11.7676 0.675341 12.2425 0.678243 12.5336 0.97292C12.8247 1.2676 12.8218 1.74246 12.5271 2.03356L12.0719 2.48318C13.3914 3.43685 14.25 4.98848 14.25 6.73933V13.4946C14.25 14.321 13.5772 14.9909 12.7512 14.9909H12V16.491C12 16.9052 11.6671 17.2409 11.25 17.2409C10.8358 17.2409 10.5 16.9081 10.5 16.491V14.9909H7.5V16.491C7.5 16.9052 7.1671 17.2409 6.75 17.2409C6.33579 17.2409 6 16.9081 6 16.491V14.9909H5.24881C4.42104 14.9909 3.75 14.3214 3.75 13.4946V6.73933C3.75 4.9875 4.60831 3.43612 5.92766 2.48278L5.47292 2.03356C5.17824 1.74246 5.17534 1.2676 5.46644 0.97292C5.75754 0.678243 6.2324 0.675341 6.52708 0.96644L7.27708 1.70733C7.29508 1.72511 7.31199 1.74358 7.32781 1.76265C7.85301 1.5864 8.41532 1.49089 9 1.49089ZM12.7512 13.4909L12.75 7.49089H5.25V13.4946L12.7512 13.4909ZM11.625 5.24089C11.2108 5.24089 10.875 4.9051 10.875 4.49089C10.875 4.18188 11.0619 3.91651 11.3288 3.80165C10.689 3.29413 9.87982 2.99089 9 2.99089C8.11965 2.99089 7.3103 3.29395 6.67059 3.80139C6.93783 3.9161 7.125 4.18164 7.125 4.49089C7.125 4.9051 6.78921 5.24089 6.375 5.24089C6.10654 5.24089 5.87102 5.09984 5.73851 4.8878C5.54592 5.2261 5.40449 5.5973 5.32473 5.99089H12.6751C12.5953 5.59754 12.4538 5.22649 12.2612 4.88826C12.1286 5.10004 11.8933 5.24089 11.625 5.24089ZM15 6.73866C15 6.32568 15.3329 5.99089 15.75 5.99089C16.1642 5.99089 16.5 6.32633 16.5 6.73866V11.2431C16.5 11.6561 16.1671 11.9909 15.75 11.9909C15.3358 11.9909 15 11.6554 15 11.2431V6.73866ZM1.5 6.73866C1.5 6.32568 1.8329 5.99089 2.25 5.99089C2.66421 5.99089 3 6.32633 3 6.73866V11.2431C3 11.6561 2.6671 11.9909 2.25 11.9909C1.83579 11.9909 1.5 11.6554 1.5 11.2431V6.73866Z" fill="black"/>
</svg>
