<svg width="18" height="18" viewBox="0 0 18 18" fill="none" xmlns="http://www.w3.org/2000/svg">
<path fill-rule="evenodd" clip-rule="evenodd" d="M11.64 4.10673C12.9121 4.10673 14.1045 4.65845 14.8608 5.75181C15.0961 6.09193 15.0124 6.55852 14.6736 6.79537C13.9603 7.29404 13.5013 8.13285 13.5013 8.98893C13.5013 9.92921 14.0813 10.8061 14.977 11.2831C15.3054 11.458 15.4562 11.8476 15.3314 12.1984C14.5047 14.5213 12.6997 16.5 11.2649 16.5C9.94659 16.5 9.55955 16.1244 9 16.1244C8.44045 16.1244 8.04881 16.5 6.75052 16.5C4.70078 16.5 2.25452 12.7349 2.25 9.36224C2.25445 6.03917 4.00444 4.10673 6.37547 4.10673C7.17848 4.10673 8.11683 4.30351 9.01466 4.87907C9.89548 4.30351 10.8375 4.10673 11.64 4.10673ZM12.0011 8.98893C12.0011 7.93035 12.4341 6.90688 13.1693 6.11576C12.7448 5.77868 12.2129 5.60895 11.64 5.60895C10.6235 5.60895 9.60092 6.24936 9.44928 6.29375C9.30166 6.33696 9.15359 6.36005 9.00078 6.36005C8.85806 6.36005 8.71932 6.33942 8.5813 6.30073C8.42464 6.25681 7.42348 5.60895 6.37547 5.60895C4.86717 5.60895 3.75356 6.83866 3.75017 9.36224C3.75203 10.746 4.22747 12.2021 4.99876 13.3892C5.33693 13.9097 5.7119 14.3426 6.06986 14.6359C6.36956 14.8815 6.62012 14.9978 6.75052 14.9978C7.67336 14.9978 8.27988 14.6222 9.01466 14.6222C9.74943 14.6222 10.3095 14.9978 11.2649 14.9978C11.4908 14.9978 11.9712 14.6976 12.4714 14.1492C12.9442 13.6308 13.3751 12.9658 13.6985 12.2421C12.6515 11.4414 12.0011 10.2679 12.0011 8.98893ZM11.9823 1.09912C11.9823 1.09912 12.0171 2.23407 11.251 2.98007C10.5222 3.7203 9.37778 3.69501 9.37778 3.69501C9.17191 3.71096 9.01189 3.54959 9.02255 3.34334C9.02255 3.34334 8.98386 2.22291 9.75086 1.47692C10.5179 0.730924 11.6262 0.751371 11.6262 0.751371C11.8369 0.733451 11.9933 0.893465 11.9823 1.09912Z" fill="black"/>
</svg>
