<svg width="18" height="18" viewBox="0 0 18 18" fill="none" xmlns="http://www.w3.org/2000/svg">
<path fill-rule="evenodd" clip-rule="evenodd" d="M17.25 11.625H11.3587C11.6814 12.7093 12.6859 13.5 13.875 13.5C14.479 13.5 15.0499 13.2963 15.5117 12.9275C15.8353 12.669 16.3072 12.7218 16.5657 13.0454C16.8243 13.369 16.7715 13.841 16.4478 14.0995C15.7226 14.6788 14.8223 15 13.875 15C11.5968 15 9.75 13.1532 9.75 10.875C9.75 8.59683 11.5968 6.75 13.875 6.75C16.1532 6.75 18 8.59683 18 10.875C18 11.2892 17.6642 11.625 17.25 11.625ZM13.875 8.25C12.6859 8.25 11.6814 9.04069 11.3587 10.125H16.3913C16.0686 9.04069 15.0641 8.25 13.875 8.25ZM5.24628 9H1.5V13.5H5.25347C6.49446 13.5 7.5 12.4931 7.5 11.25C7.5 10.0096 6.48989 9 5.24628 9ZM9 11.25C9 13.3211 7.32333 15 5.25347 15H1.12193C0.500727 15 0 14.4959 0 13.8747V4.12593C0 3.50686 0.503646 3 1.12533 3H4.49875C6.15878 3 7.5 4.34198 7.5 6C7.5 6.70234 7.25791 7.34879 6.8526 7.86034C8.12169 8.46231 9 9.75487 9 11.25ZM1.5 4.5V7.5H4.49875C5.32696 7.5 6 6.82681 6 6C6 5.17022 5.33016 4.5 4.49875 4.5H1.5ZM11.25 5.25C11.25 4.83579 11.5864 4.5 12.0022 4.5H15.7478C16.1632 4.5 16.5 4.8329 16.5 5.25C16.5 5.66421 16.1636 6 15.7478 6H12.0022C11.5868 6 11.25 5.6671 11.25 5.25Z" fill="black"/>
</svg>
