<svg width="18" height="18" viewBox="0 0 18 18" fill="none" xmlns="http://www.w3.org/2000/svg">
<path fill-rule="evenodd" clip-rule="evenodd" d="M13.2426 4.75736C12.6259 4.14067 11.9084 3.68628 11.1431 3.3942C10.8899 4.99178 10.1402 6.57563 8.98053 7.91987L10.0801 9.01947C11.4242 7.85995 13.0079 7.11011 14.6058 6.8569C14.3137 6.0916 13.8593 5.37406 13.2426 4.75736ZM11.1442 10.0835L13.7401 12.6795C14.7266 11.4119 15.1338 9.83955 14.9616 8.32039C13.6367 8.50448 12.2963 9.11502 11.1442 10.0835ZM9.01947 10.0801L7.91987 8.98053C6.57546 10.1403 4.99148 10.89 3.39421 11.1431C3.68629 11.9084 4.14067 12.626 4.75736 13.2426C5.37405 13.8593 6.0916 14.3137 6.8569 14.6058C7.1101 13.008 7.8599 11.4243 9.01947 10.0801ZM12.6795 13.7401L10.0835 11.1442C9.11497 12.2963 8.50445 13.6368 8.32038 14.9616C9.83955 15.1338 11.4119 14.7266 12.6795 13.7401ZM5.32051 4.25985L7.9165 6.85584C8.88513 5.70353 9.49559 4.36301 9.67963 3.03838C8.16046 2.86619 6.5881 3.27335 5.32051 4.25985ZM6.85584 7.9165L4.25985 5.32051C3.27335 6.5881 2.86619 8.16047 3.03838 9.67964C4.36267 9.49566 5.70333 8.88528 6.85584 7.9165ZM3.6967 14.3033C0.767767 11.3744 0.767767 6.62563 3.6967 3.6967C6.62563 0.767767 11.3744 0.767767 14.3033 3.6967C17.2322 6.62563 17.2322 11.3744 14.3033 14.3033C11.3744 17.2322 6.62563 17.2322 3.6967 14.3033Z" fill="black"/>
</svg>
