<svg width="18" height="18" viewBox="0 0 18 18" fill="none" xmlns="http://www.w3.org/2000/svg">
<path fill-rule="evenodd" clip-rule="evenodd" d="M14.2537 15C14.6661 15 15 14.6661 15 14.2537V3.74632C15 3.33387 14.6661 3 14.2537 3H3.74632C3.33387 3 3 3.33394 3 3.74632V14.2537C3 14.6661 3.33394 15 3.74632 15H9V10.5H8.24963C7.83542 10.5 7.49963 10.1642 7.49963 9.75C7.49963 9.33579 7.83542 9 8.24963 9H9C9 7.57739 9.16062 6.6808 9.8279 5.93396C10.4877 5.19547 11.2588 4.875 12 4.875C12.4142 4.875 12.75 5.21079 12.75 5.625C12.75 6.03921 12.4142 6.375 12 6.375C11.6722 6.375 11.3114 6.52496 10.9465 6.93337C10.6144 7.30507 10.5 7.94342 10.5 9H12C12.4142 9 12.75 9.33579 12.75 9.75C12.75 10.1642 12.4142 10.5 12 10.5H10.5V15H14.2537ZM1.5 14.2537V3.74632C1.5 2.50559 2.50538 1.5 3.74632 1.5H14.2537C15.4944 1.5 16.5 2.50538 16.5 3.74632V14.2537C16.5 15.4944 15.4946 16.5 14.2537 16.5H3.74632C2.50559 16.5 1.5 15.4946 1.5 14.2537Z" fill="black"/>
</svg>
