<svg width="18" height="18" viewBox="0 0 18 18" fill="none" xmlns="http://www.w3.org/2000/svg">
<path fill-rule="evenodd" clip-rule="evenodd" d="M12.9865 5.99728L13.4401 3.59909C13.5065 3.24764 13.3124 3.01325 12.953 3.0126L5.99987 3C5.58297 2.99925 5.25 3.33105 5.25 3.7436V13.9449L8.46967 10.717C8.61032 10.5763 8.80109 10.4973 9 10.4973H11.2559C11.7249 10.4973 12.2118 10.0942 12.2986 9.63479L12.7029 7.49728H9.0022C8.58677 7.49728 8.25 7.16438 8.25 6.74728C8.25 6.33307 8.5864 5.99728 9.0022 5.99728H12.9865ZM3.75 15.7473V3.7436C3.75 2.50099 4.75676 1.49775 6.00259 1.5L12.9557 1.5126C14.2538 1.51495 15.155 2.60329 14.9139 3.87781L13.7725 9.91351C13.5516 11.0816 12.4455 11.9973 11.2559 11.9973H9.30679L5.03033 16.2776C4.55786 16.7501 3.75 16.4155 3.75 15.7473Z" fill="black"/>
</svg>
