<svg width="18" height="18" viewBox="0 0 18 18" fill="none" xmlns="http://www.w3.org/2000/svg">
<path fill-rule="evenodd" clip-rule="evenodd" d="M12.75 8.8125C12.75 10.1192 11.8249 11.2423 10.5011 11.7344C10.5636 12.2154 10.6581 12.9017 10.7182 13.1663C10.8874 13.912 11.1079 14.3999 11.2284 14.5725C13.4387 13.6879 15 11.5263 15 9C15 5.68629 12.3137 3 9 3C5.68629 3 3 5.68629 3 9C3 11.5346 4.57154 13.702 6.79336 14.5812C6.82433 14.5435 6.87122 14.4771 6.93207 14.3666C7.08596 14.0871 7.22228 13.6666 7.33118 13.1507C7.34072 13.1055 7.35164 13.0496 7.36348 12.9858C7.13084 13.0693 6.87134 13.1142 6.58676 13.1142C5.85532 13.1142 5.24242 12.8246 4.76047 12.3561C4.47923 12.0828 4.29643 11.8085 4.1952 11.5998C4.01438 11.2272 4.1699 10.7785 4.54257 10.5977C4.91523 10.4168 5.36392 10.5724 5.54473 10.945C5.57593 11.0093 5.66597 11.1444 5.80595 11.2805C6.02603 11.4944 6.27951 11.6142 6.58676 11.6142C6.77492 11.6142 6.89643 11.5755 6.98544 11.5015C5.94198 10.9355 5.25 9.94267 5.25 8.8125C5.25 8.3836 5.34966 7.97448 5.53038 7.60096L5.26838 5.81356C5.20802 5.40176 5.48173 5.17061 5.87911 5.29308L7.64836 5.83833C8.06769 5.70055 8.52347 5.625 9 5.625C9.47443 5.625 9.92828 5.69989 10.3461 5.83651L12.1094 5.29308C12.5068 5.17061 12.7805 5.40176 12.7201 5.81356L12.4608 7.58289C12.6471 7.96126 12.75 8.37667 12.75 8.8125ZM8.79885 13.4605C8.67534 14.0456 8.52386 14.5527 8.32829 14.9628C8.54881 14.9874 8.77293 15 9 15C9.24537 15 9.48731 14.9853 9.72496 14.9566C9.53541 14.556 9.38381 14.0643 9.25537 13.4982C9.19154 13.2169 9.09501 12.5285 9.02565 11.9999C9.0194 12 9.01316 12 9.00691 12C8.95049 12.4818 8.86402 13.1517 8.79885 13.4605ZM9 16.5C4.85786 16.5 1.5 13.1421 1.5 9C1.5 4.85786 4.85786 1.5 9 1.5C13.1421 1.5 16.5 4.85786 16.5 9C16.5 12.3311 14.3284 15.1549 11.3237 16.1331C10.5717 16.3746 9.8005 16.5 9 16.5Z" fill="black"/>
</svg>
