<svg width="18" height="18" viewBox="0 0 18 18" fill="none" xmlns="http://www.w3.org/2000/svg">
<path fill-rule="evenodd" clip-rule="evenodd" d="M9 14.25C6.10051 14.25 3.75 11.8995 3.75 9C3.75 6.10051 6.10051 3.75 9 3.75C10.1976 3.75 11.3319 4.15125 12.2517 4.87788C12.5767 5.13467 13.0483 5.07935 13.3051 4.75434C13.5619 4.42932 13.5066 3.95768 13.1815 3.7009C11.9993 2.76688 10.5381 2.25 9 2.25C5.27208 2.25 2.25 5.27208 2.25 9C2.25 12.7279 5.27208 15.75 9 15.75C12.7279 15.75 15.75 12.7279 15.75 9C15.75 8.58579 15.4142 8.25 15 8.25H9.74777C9.33544 8.25 9 8.58579 9 9C9 9.4171 9.33479 9.75 9.74777 9.75H14.1968C13.8329 12.2942 11.6449 14.25 9 14.25Z" fill="black"/>
</svg>
