<svg width="18" height="18" viewBox="0 0 18 18" fill="none" xmlns="http://www.w3.org/2000/svg">
<path fill-rule="evenodd" clip-rule="evenodd" d="M5.24644 1.5H12.7536C14.8227 1.5 16.5 3.17703 16.5 5.24644V12.7536C16.5 14.8227 14.823 16.5 12.7536 16.5H5.24644C3.17734 16.5 1.5 14.823 1.5 12.7536V5.24644C1.5 3.17734 3.17703 1.5 5.24644 1.5ZM3 12.7536C3 13.9944 4.00564 15 5.24644 15H12.7536C13.9944 15 15 13.9944 15 12.7536V5.24644C15 4.00558 13.9944 3 12.7536 3H5.24644C4.00558 3 3 4.00564 3 5.24644V12.7536ZM5.25 9C5.25 6.92893 6.92893 5.25 9 5.25C11.0711 5.25 12.75 6.92893 12.75 9C12.75 11.0711 11.0711 12.75 9 12.75C6.92893 12.75 5.25 11.0711 5.25 9ZM11.25 9C11.25 7.75736 10.2426 6.75 9 6.75C7.75736 6.75 6.75 7.75736 6.75 9C6.75 10.2426 7.75736 11.25 9 11.25C10.2426 11.25 11.25 10.2426 11.25 9ZM12.75 6C12.3358 6 12 5.66421 12 5.25C12 4.83579 12.3358 4.5 12.75 4.5C13.1642 4.5 13.5 4.83579 13.5 5.25C13.5 5.66421 13.1642 6 12.75 6Z" fill="black"/>
</svg>
