<svg width="18" height="18" viewBox="0 0 18 18" fill="none" xmlns="http://www.w3.org/2000/svg">
<path fill-rule="evenodd" clip-rule="evenodd" d="M1.5 14.2537V3.74632C1.5 2.50559 2.50538 1.5 3.74632 1.5H14.2537C15.4944 1.5 16.5 2.50538 16.5 3.74632V14.2537C16.5 15.4944 15.4946 16.5 14.2537 16.5H3.74632C2.50559 16.5 1.5 15.4946 1.5 14.2537ZM3.74632 3C3.33387 3 3 3.33394 3 3.74632V14.2537C3 14.6661 3.33394 15 3.74632 15H14.2537C14.6661 15 15 14.6661 15 14.2537V3.74632C15 3.33387 14.6661 3 14.2537 3H3.74632ZM5.25 8.2522C5.25 7.83677 5.5829 7.5 6 7.5C6.41421 7.5 6.75 7.8364 6.75 8.2522V11.9978C6.75 12.4132 6.4171 12.75 6 12.75C5.58579 12.75 5.25 12.4136 5.25 11.9978V8.2522ZM6 6.75C5.58579 6.75 5.25 6.41421 5.25 6C5.25 5.58579 5.58579 5.25 6 5.25C6.41421 5.25 6.75 5.58579 6.75 6C6.75 6.41421 6.41421 6.75 6 6.75ZM9.375 9.93769V12C9.375 12.4142 9.03921 12.75 8.625 12.75C8.21079 12.75 7.875 12.4142 7.875 12V9.93769C7.875 8.59193 8.96766 7.5 10.3125 7.5C11.6579 7.5 12.75 8.59358 12.75 9.93769V12C12.75 12.4142 12.4142 12.75 12 12.75C11.5858 12.75 11.25 12.4142 11.25 12V9.93769C11.25 9.42156 10.829 9 10.3125 9C9.79586 9 9.375 9.42058 9.375 9.93769Z" fill="black"/>
</svg>
