<svg width="18" height="18" viewBox="0 0 18 18" fill="none" xmlns="http://www.w3.org/2000/svg">
<path fill-rule="evenodd" clip-rule="evenodd" d="M11.0771 2.94152C11.3171 2.40196 11.9431 2.12325 12.5023 2.30662L14.3045 2.89764L15.9699 3.40848C16.2849 3.50511 16.5 3.79602 16.5 4.12551V15.0005C16.5 15.5124 15.9985 15.8739 15.5128 15.712L7.63411 13.086C7.48398 13.0359 7.35353 12.9397 7.26142 12.811L6.7675 12.121L6.77043 14.7241C6.77124 15.4406 6.11308 15.9223 5.43252 15.6985L2.37771 14.6936C1.87324 14.5277 1.50818 14.0197 1.50778 13.4879L1.5 3.27963C1.49945 2.56378 2.15669 2.08188 2.83704 2.30499L5.88858 3.3057C6.14095 3.38846 6.35841 3.55688 6.51284 3.77109L8.94932 7.72446L11.0771 2.94152ZM11.4528 11.7893L14.649 4.58813L12.3275 3.82117L9.90253 9.27215L11.4528 11.7893ZM15 13.9651V7.50015L12.4983 13.132L15 13.9651ZM8.34609 11.7493L10.0072 12.3024L6.76176 7.03296L6.76459 9.53997L8.34609 11.7493ZM3.00051 3.95004L3.00162 13.3204L5.25 14.0692V4.67913L3.00051 3.95004Z" fill="black"/>
</svg>
