<svg width="18" height="18" viewBox="0 0 18 18" fill="none" xmlns="http://www.w3.org/2000/svg">
<path fill-rule="evenodd" clip-rule="evenodd" d="M3.75 16.5C3.75 16.5 3.75 14.2718 3.75457 14.0403C1.87456 12.6324 0.75 10.5295 0.75 8.25C0.75 4.08922 4.46024 0.75 9 0.75C13.5398 0.75 17.25 4.08922 17.25 8.25C17.25 12.4108 13.5398 15.75 9 15.75C8.39761 15.75 7.80329 15.6913 7.22453 15.5759C7.11605 15.6446 4.91603 17.124 4.91603 17.124C4.41761 17.4563 3.75 17.099 3.75 16.5ZM2.25 8.25C2.25 10.1434 3.24545 11.8971 4.92004 13.0292C5.12637 13.1686 5.25 13.4014 5.25 13.6505V15.1072L6.66753 14.1536C6.84072 14.0381 7.0541 13.9998 7.25663 14.0479C7.82028 14.1816 8.40474 14.25 9 14.25C12.7445 14.25 15.75 11.5451 15.75 8.25C15.75 4.95494 12.7445 2.25 9 2.25C5.25549 2.25 2.25 4.95494 2.25 8.25ZM9.12596 9.79103L8.06032 8.20476L5.7 9.975C5.36863 10.2235 4.89853 10.1564 4.65 9.825C4.40147 9.49363 4.46863 9.02353 4.8 8.775L7.8 6.525C8.14445 6.26666 8.6352 6.35072 8.87404 6.70897L9.9383 8.30537L12.3 6.525C12.6314 6.27647 13.1015 6.34363 13.35 6.675C13.5985 7.00637 13.5314 7.47647 13.2 7.725L10.2 9.975C9.85555 10.2333 9.3648 10.1493 9.12596 9.79103Z" fill="black"/>
</svg>
