<svg width="18" height="18" viewBox="0 0 18 18" fill="none" xmlns="http://www.w3.org/2000/svg">
<path fill-rule="evenodd" clip-rule="evenodd" d="M10.2745 12.7575C11.9804 12.7575 13.3843 11.8233 14.125 10.5613C14.7264 9.53662 14.9909 8.48181 14.9909 7.125C14.9909 3.62359 12.507 1.5 8.99093 1.5C5.62451 1.5 3.0005 3.9028 3.0005 7.17087C2.99657 7.36446 3.01537 7.63675 3.07524 7.95919C3.16875 8.46278 3.34261 8.96406 3.61864 9.43675C3.91171 9.93863 4.30466 10.379 4.80587 10.7359C5.14328 10.9762 5.61158 10.8975 5.85185 10.5601C6.09213 10.2227 6.01339 9.75436 5.67599 9.51408C5.353 9.28407 5.10271 9.00357 4.91395 8.68034C4.59739 8.13824 4.49279 7.57493 4.50013 7.19431C4.5005 4.76216 6.42489 3 8.99093 3C11.7262 3 13.4909 4.50875 13.4909 7.125C13.4909 8.22425 13.2921 9.01694 12.8313 9.80204C12.3432 10.6338 11.4058 11.2575 10.2745 11.2575C9.21408 11.2575 8.70339 10.8027 8.38039 9.85712C8.37567 9.8433 9.34014 6.19498 9.34014 6.19498C9.44783 5.79501 9.1081 5.17238 8.70812 5.0647C8.30815 4.95701 7.50123 5.13861 7.21559 6.26889C6.94577 7.33656 7.3472 7.82751 7.07495 8.83875L5.26672 15.555C5.15903 15.955 5.39598 16.3665 5.79595 16.4742C6.19592 16.5819 6.60746 16.345 6.71514 15.945L7.8238 11.8271C8.40141 12.4236 9.20071 12.7575 10.2745 12.7575Z" fill="black"/>
</svg>
