<svg width="18" height="18" viewBox="0 0 18 18" fill="none" xmlns="http://www.w3.org/2000/svg">
<path fill-rule="evenodd" clip-rule="evenodd" d="M13.9931 10.2906C14.2041 10.6482 14.4407 10.8958 14.7384 11.1704C15.0288 11.4382 15.3421 11.6665 15.6548 11.854C15.8385 11.9641 15.9758 12.0338 16.0426 12.063C16.6018 12.3081 16.6763 13.0212 16.062 13.45C15.8217 13.6178 15.5016 13.9868 15.4847 14.0045C15.3032 14.1972 15.1629 14.4037 15.0599 14.608C15.0251 14.677 14.9978 14.7395 14.9638 14.8305C14.8658 15.1742 14.539 15.4011 14.1827 15.3726C14.1748 15.372 14.1518 15.3705 14.1153 15.3689C13.5516 15.3443 12.8641 15.3984 12.226 15.5911C12.1158 15.6244 12.0098 15.6614 11.9083 15.702C10.458 16.2825 9.74247 16.5 8.99247 16.5C8.24685 16.5114 7.70058 16.3431 6.08448 15.6963C5.9797 15.6544 5.86992 15.6164 5.75563 15.5824C5.12485 15.3947 4.44391 15.3432 3.88085 15.3694C3.84071 15.3713 3.81526 15.3729 3.80621 15.3737C3.4448 15.4043 3.1133 15.1718 3.00635 14.786C2.98725 14.7335 2.96146 14.6723 2.92839 14.6046C2.83049 14.4042 2.6961 14.2017 2.52108 14.0128C2.50565 13.9962 2.03293 13.4864 1.88665 13.4102C1.35667 13.1344 1.36878 12.3155 1.9399 12.0637C2.00707 12.0341 2.14505 11.9637 2.32955 11.8526C2.64368 11.6633 2.95852 11.4329 3.25023 11.1628C3.56344 10.8728 3.86474 10.5208 4.08266 10.1414C4.27142 9.81276 4.4013 9.47327 4.45888 9.23289C4.32136 9.08522 4.16026 8.93693 3.97809 8.79844C3.62384 8.52913 3.23414 8.33053 2.81541 8.2288C2.41291 8.13101 2.16589 7.72545 2.26367 7.32294C2.36146 6.92044 2.76703 6.67341 3.16953 6.7712C3.64555 6.88685 4.08672 7.07997 4.49247 7.33274V6.00017C4.49247 3.51466 6.50687 1.5 8.99247 1.5C11.4789 1.5 13.4925 3.51232 13.4925 6.00017V7.33274C13.8982 7.07997 14.3394 6.88685 14.8154 6.7712C15.2179 6.67341 15.6235 6.92044 15.7213 7.32294C15.8191 7.72545 15.572 8.13101 15.1695 8.2288C14.7508 8.33053 14.3611 8.52913 14.0069 8.79844C13.8292 8.93347 13.6716 9.07782 13.5364 9.22183C13.613 9.52038 13.7829 9.93432 13.9931 10.2906ZM11.9933 8.96211L11.9925 6.00017C11.9925 4.34096 10.6507 3 8.99247 3C7.33534 3 5.99247 4.34304 5.99247 6.00017V8.99001C5.99232 9.04066 5.99021 9.0719 5.98616 9.10291C5.82287 10.3536 5.19653 11.405 4.26928 12.2635C4.02264 12.4918 3.50422 12.8779 3.50422 12.8779C3.50422 12.8779 3.59672 12.9667 3.62141 12.9934C3.8794 13.2718 4.08216 13.5686 4.23706 13.8675C4.53058 13.8409 5.36432 13.9009 6.18348 14.1447C6.34064 14.1915 6.49358 14.2443 6.64187 14.3037C8.06991 14.8753 8.4145 15.0057 9.00594 15.0057C9.59739 15.0057 10.0499 14.8301 11.3509 14.3094C11.4939 14.2522 11.6411 14.2009 11.7922 14.1553C12.4644 13.9521 13.1476 13.8703 13.7652 13.8636C13.8864 13.5952 14.0837 13.3017 14.4875 12.8784C14.4875 12.8784 14.0924 12.6152 13.7214 12.273C12.8116 11.4338 12.193 10.409 12.0179 9.19387C11.9978 9.11852 11.9895 9.04027 11.9933 8.96211Z" fill="black"/>
</svg>
