<svg width="18" height="18" viewBox="0 0 18 18" fill="none" xmlns="http://www.w3.org/2000/svg">
<path fill-rule="evenodd" clip-rule="evenodd" d="M6.75 5.8732C6.75 5.66511 6.86596 5.37729 7.009 5.22842C7.009 5.22842 7.17516 5.04072 7.41742 4.84434C8.26136 4.16022 9.33277 3.75 10.5 3.75C13.0662 3.75 15.1693 5.73283 15.375 8.25C16.8247 8.25 18 9.42525 18 10.875C18 12.3247 16.8247 13.5 15.375 13.5H7.50032C7.08811 13.5 6.75 13.163 6.75 12.7472V5.8732ZM15.375 12C15.9963 12 16.5 11.4963 16.5 10.875C16.5 10.2537 15.9963 9.75 15.375 9.75H14.6275C14.2147 9.75 13.88 9.41646 13.88 8.99658V8.37217C13.7364 6.61519 12.2669 5.25 10.5 5.25C9.2352 5.25 8.25 6.1108 8.25 6.1108V12.0002L15.375 12ZM4.5 7.49816C4.5 7.08496 4.8329 6.75 5.25 6.75C5.66421 6.75 6 7.08473 6 7.49816V12.7518C6 13.165 5.6671 13.5 5.25 13.5C4.83579 13.5 4.5 13.1653 4.5 12.7518V7.49816ZM2.25 9.0022C2.25 8.58677 2.5829 8.25 3 8.25C3.41421 8.25 3.75 8.5864 3.75 9.0022V12.7478C3.75 13.1632 3.4171 13.5 3 13.5C2.58579 13.5 2.25 13.1636 2.25 12.7478V9.0022ZM0 10.122C0 9.70945 0.332899 9.375 0.75 9.375C1.16421 9.375 1.5 9.71257 1.5 10.122V12.753C1.5 13.1656 1.1671 13.5 0.75 13.5C0.335786 13.5 0 13.1624 0 12.753V10.122Z" fill="black"/>
</svg>
