<svg width="18" height="18" viewBox="0 0 18 18" fill="none" xmlns="http://www.w3.org/2000/svg">
<path fill-rule="evenodd" clip-rule="evenodd" d="M1.5 9C1.5 4.85786 4.85786 1.5 9 1.5C13.1421 1.5 16.5 4.85786 16.5 9C16.5 13.1421 13.1421 16.5 9 16.5C4.85786 16.5 1.5 13.1421 1.5 9ZM15 9C15 5.68629 12.3137 3 9 3C5.68629 3 3 5.68629 3 9C3 12.3137 5.68629 15 9 15C12.3137 15 15 12.3137 15 9ZM6.20698 7.29893C5.99609 7.3372 5.49846 7.45812 5.47381 7.46583C5.07847 7.58944 4.65778 7.36915 4.53417 6.97381C4.41056 6.57847 4.63085 6.15778 5.02619 6.03417C5.20561 5.97807 5.51668 5.8997 5.93915 5.82303C8.33092 5.389 10.9641 5.5732 13.4621 6.83002C13.8321 7.01619 13.9811 7.46707 13.795 7.83709C13.6088 8.20711 13.1579 8.35615 12.7879 8.16998C10.6217 7.08009 8.30569 6.91807 6.20698 7.29893ZM6.46891 9.55713C6.29503 9.59229 5.88965 9.702 5.87202 9.70815C5.48092 9.84458 5.05327 9.63812 4.91685 9.24702C4.78042 8.85592 4.98688 8.42827 5.37798 8.29185C5.53635 8.2366 5.80648 8.16072 6.17161 8.08688C8.26028 7.66453 10.5645 7.85243 12.7469 9.09871C13.1066 9.30411 13.2317 9.76222 13.0263 10.1219C12.8209 10.4816 12.3628 10.6067 12.0031 10.4013C10.1785 9.3594 8.23183 9.20065 6.46891 9.55713ZM6.83337 11.801C6.6685 11.8368 6.27022 11.9499 6.25104 11.9567C5.86072 12.0954 5.43191 11.8914 5.29326 11.501C5.15462 11.1107 5.35864 10.6819 5.74896 10.5433C5.90536 10.4877 6.16791 10.4107 6.51439 10.3353C7.64511 10.0892 8.83281 10.0441 9.96921 10.334C10.7549 10.5345 11.4681 10.8891 12.0824 11.4169C12.3966 11.6868 12.4325 12.1603 12.1626 12.4745C11.8927 12.7887 11.4191 12.8246 11.105 12.5547C10.6735 12.184 10.1686 11.933 9.59834 11.7875C8.72089 11.5636 7.75567 11.6002 6.83337 11.801Z" fill="black"/>
</svg>
