<svg width="18" height="18" viewBox="0 0 18 18" fill="none" xmlns="http://www.w3.org/2000/svg">
<path fill-rule="evenodd" clip-rule="evenodd" d="M1.5 14.2537V3.74632C1.5 2.50559 2.50538 1.5 3.74632 1.5H14.2537C15.4944 1.5 16.5 2.50538 16.5 3.74632V14.2537C16.5 15.4944 15.4946 16.5 14.2537 16.5H3.74632C2.50559 16.5 1.5 15.4946 1.5 14.2537ZM3.74632 3C3.33387 3 3 3.33394 3 3.74632V14.2537C3 14.6661 3.33394 15 3.74632 15H14.2537C14.6661 15 15 14.6661 15 14.2537V3.74632C15 3.33387 14.6661 3 14.2537 3H3.74632ZM9.375 11.0655C9.375 11.3736 9.62686 11.625 9.9375 11.625C10.0873 11.625 10.2266 11.567 10.3317 11.464C10.6278 11.1743 11.1026 11.1795 11.3923 11.4755C11.682 11.7716 11.6769 12.2464 11.3809 12.5361C10.9982 12.9106 10.4835 13.125 9.9375 13.125C8.79904 13.125 7.875 12.2026 7.875 11.0655V8.625H7.1272C6.71177 8.625 6.375 8.2921 6.375 7.875V7.5C6.375 7.29289 6.5418 7.125 6.74633 7.125H6.763C6.763 7.125 7.16986 7.16217 7.53488 6.81866C7.8999 6.47516 7.875 6.01804 7.875 6.01804V5.625C7.875 5.21079 8.21079 4.875 8.625 4.875C9.03921 4.875 9.375 5.21079 9.375 5.625V7.125H10.8728C11.2882 7.125 11.625 7.4579 11.625 7.875C11.625 8.28921 11.2886 8.625 10.8728 8.625H9.375V11.0655Z" fill="black"/>
</svg>
