<svg width="18" height="18" viewBox="0 0 18 18" fill="none" xmlns="http://www.w3.org/2000/svg">
<path fill-rule="evenodd" clip-rule="evenodd" d="M5.84986 11.7537C6.33264 12.0801 6.27507 12.8083 5.747 13.0547C5.54917 13.147 3.7906 13.6219 3.7906 13.6219C4.49124 14.0346 5.47326 14.2501 6.75716 14.2501C10.8766 14.2501 13.8826 11.2242 13.8856 6.69553C13.8857 6.61732 13.8822 6.39627 13.8822 6.37505C13.8822 4.81555 13.0642 3.7426 11.6361 3.75004C10.1977 3.75753 9.38216 4.82277 9.38216 6.37505C9.38216 6.46517 9.37978 7.02493 9.37978 7.11594C9.37978 7.56577 8.98656 7.91441 8.53997 7.86055C6.6589 7.63366 4.95103 6.80796 3.63324 5.52864C3.63324 5.52864 3.45999 6.18187 3.41765 6.48209C3.44215 6.5112 3.90725 6.98185 4.17246 7.17122C4.37595 7.31652 4.5963 7.44826 4.83378 7.56314C5.20665 7.74352 5.36269 8.19202 5.18231 8.5649C5.00193 8.93777 4.55343 9.09382 4.18055 8.91344C3.94472 8.79935 3.72137 8.67261 3.51036 8.53501C3.80728 9.74756 4.55704 10.8798 5.84986 11.7537ZM15.7141 3.75768C16.4702 3.71709 16.7359 4.1875 16.2998 4.8088L15.3766 6.12369C15.3803 6.20678 15.3857 6.59651 15.3856 6.69654C15.382 12.0508 11.7071 15.7501 6.75716 15.7501C4.31265 15.7501 2.73335 15.1114 1.645 13.6212C1.32032 13.1767 1.56926 12.5455 2.10999 12.4422C2.1348 12.4375 3.86585 12.0633 3.86585 12.0633C1.57981 9.75179 1.36903 6.46811 2.72141 3.79058C2.97094 3.29654 3.65133 3.23373 3.98709 3.67373C4.95927 4.94773 6.32526 5.84149 7.88668 6.2207C7.96122 3.96942 9.33308 2.26202 11.6283 2.25006C12.9972 2.24293 14.0394 2.85099 14.6743 3.81351L15.7141 3.75768Z" fill="black"/>
</svg>
