<svg width="18" height="18" viewBox="0 0 18 18" fill="none" xmlns="http://www.w3.org/2000/svg">
<path fill-rule="evenodd" clip-rule="evenodd" d="M9.55118 13.4084C9.55118 13.9478 8.98916 14.3033 8.50171 14.0722C8.40782 14.0277 8.24476 13.9437 8.02236 13.8188C7.6593 13.6149 7.25678 13.3671 6.82465 13.0739C5.59541 12.24 4.36787 11.2068 3.22181 9.96128C2.04237 8.6751 1.20277 7.45088 0.629724 6.30796C0.276663 5.60378 0.0896591 5.0707 0.0181595 4.75366C-0.0711074 4.35784 0.177402 3.9646 0.573221 3.87534C0.969041 3.78607 1.36228 4.03458 1.45155 4.4304C1.46008 4.46822 1.76741 5.29865 1.94326 5.64937C2.45581 6.67165 3.2181 7.78315 4.28069 8.94194C5.36818 10.1238 6.50972 11.0847 7.64955 11.8579C7.79794 11.9586 7.94219 12.0532 8.08179 12.1419L8.08264 5.32673H7.3488C6.94304 5.32673 6.61411 4.99779 6.61411 4.59203C6.61411 4.18627 6.94304 3.85734 7.3488 3.85734H8.08264C8.89434 3.85734 9.55118 4.51643 9.55118 5.32854V9.00019C9.55118 9.00019 10.3046 9.00027 10.3141 9.00042C11.3415 8.99068 12.6583 8.45178 13.6127 7.54464C13.818 7.34956 14.0502 7.10088 14.3031 6.80709C14.4698 6.61354 14.6436 6.40249 14.823 6.17672C15.1694 5.74089 15.5194 5.27202 15.8546 4.80293C15.9721 4.6386 16.2691 4.21077 16.289 4.18117C16.516 3.84479 16.9726 3.75605 17.309 3.98296C17.6454 4.20988 17.7341 4.66652 17.5072 5.0029C17.4841 5.0371 17.1721 5.48658 17.0501 5.65723C16.7014 6.14522 16.3369 6.63342 15.9734 7.09086C15.7826 7.33102 15.5966 7.5568 15.4167 7.7658C15.1341 8.09398 14.8698 8.3771 14.625 8.60969C14.1446 9.06636 13.5945 9.44939 13.0185 9.7469C13.5096 9.95481 13.9969 10.1959 14.4298 10.4564C14.8362 10.7011 15.2519 10.9934 15.6723 11.3235C16.1109 11.6679 16.532 12.0353 16.9219 12.4026C17.0586 12.5314 17.403 12.8732 17.4293 12.9008C17.7096 13.1942 17.699 13.6592 17.4057 13.9395C17.1123 14.2199 16.6473 14.2093 16.3669 13.9159C16.3483 13.8964 16.0402 13.5907 15.9144 13.4722C15.5545 13.1331 15.1658 12.7941 14.7648 12.4791C14.3892 12.1842 14.0221 11.9261 13.672 11.7153C12.5275 11.0264 10.8878 10.4844 10.309 10.4699C10.3013 10.4699 9.55118 10.4699 9.55118 10.4699V13.4084Z" fill="black"/>
</svg>
