<svg width="18" height="18" viewBox="0 0 18 18" fill="none" xmlns="http://www.w3.org/2000/svg">
<path fill-rule="evenodd" clip-rule="evenodd" d="M3.75 16.5C3.75 16.5 3.74622 13.8401 3.74622 13.6024C2.32242 12.2054 1.5 10.2932 1.5 8.25C1.5 4.10786 4.85786 0.75 9 0.75C13.1421 0.75 16.5 4.10786 16.5 8.25C16.5 12.3921 13.1421 15.75 9 15.75C8.41203 15.75 7.83256 15.6822 7.27013 15.5493C7.13949 15.6295 4.91603 17.124 4.91603 17.124C4.41761 17.4563 3.75 17.099 3.75 16.5ZM3 8.25C3 9.98044 3.73556 11.5905 5.00019 12.7224C5.15915 12.8647 5.25 13.0679 5.25 13.2812V15.1198L6.72347 14.1163C6.90662 13.9942 7.13417 13.9587 7.34581 14.0193C7.87878 14.1718 8.43379 14.25 9 14.25C12.3137 14.25 15 11.5637 15 8.25C15 4.93629 12.3137 2.25 9 2.25C5.68629 2.25 3 4.93629 3 8.25ZM6.8614 5.35218C6.99918 5.21443 7.22552 5.21738 7.36061 5.35244L8.36952 6.36109C8.50978 6.50131 8.50895 6.7259 8.36989 6.86493C8.22985 7.00493 8.17821 7.26328 8.25237 7.44414C8.25237 7.44414 8.36953 7.87154 8.87278 8.37466C9.37603 8.87778 9.80441 8.99579 9.80441 8.99579C9.98346 9.07393 10.2452 9.01788 10.3843 8.87885C10.5243 8.73884 10.749 8.73998 10.8883 8.87921L11.8972 9.88786C12.0351 10.0258 12.0334 10.2511 11.8974 10.387L11.3915 10.8928C10.9743 11.3099 10.244 11.3727 9.77261 11.0232C9.77261 11.0232 9.11045 10.6262 7.85568 9.37172C6.60091 8.11727 6.2243 7.47868 6.2243 7.47868C5.87954 7.00069 5.93912 6.27422 6.35547 5.85798L6.8614 5.35218Z" fill="black"/>
</svg>
