<svg width="18" height="18" viewBox="0 0 18 18" fill="none" xmlns="http://www.w3.org/2000/svg">
<path fill-rule="evenodd" clip-rule="evenodd" d="M2.99619 2.46216C2.99619 2.46216 5.0625 2.25 9 2.25C12.9375 2.25 15.0081 2.46243 15.0081 2.46243C16.2463 2.55221 17.4373 3.61238 17.6371 4.83836C17.6371 4.83836 18 6.1875 18 9C18 11.8125 17.636 13.169 17.636 13.169C17.4228 14.3873 16.2488 15.4509 15.006 15.5338C15.006 15.5338 12.75 15.75 9 15.75C5.25 15.75 2.98961 15.5335 2.98961 15.5335C1.75271 15.446 0.562678 14.3876 0.362917 13.1616C0.362917 13.1616 0 11.8125 0 9C0 6.1875 0.364015 4.831 0.364015 4.831C0.577189 3.61266 1.75505 2.54639 2.99619 2.46216ZM1.66915 6.05675C1.56398 6.855 1.5 7.83491 1.5 9C1.5 10.1652 1.56378 11.1437 1.66861 11.9396C1.72804 12.3908 1.84339 12.9204 1.84339 12.9204C1.92945 13.4486 2.54077 13.998 3.13263 14.0403C3.19313 14.0461 4.22609 14.1207 4.66698 14.1438C5.93378 14.2101 7.38621 14.25 9 14.25C10.6138 14.25 12.0654 14.2102 13.3309 14.1439C13.7713 14.1209 14.8026 14.0464 14.8629 14.0406C15.4552 14.0005 16.0637 13.4521 16.1584 12.9105C16.1584 12.9105 16.2712 12.3961 16.3308 11.9432C16.436 11.145 16.5 10.1651 16.5 9C16.5 7.83484 16.4362 6.85629 16.3314 6.06037C16.272 5.60919 16.1566 5.07959 16.1566 5.07959C16.0704 4.55075 15.457 3.99891 14.8996 3.9585C14.8025 3.9492 13.831 3.87671 13.4019 3.85414C12.1656 3.78913 10.6962 3.75 9 3.75C7.30378 3.75 5.83519 3.78908 4.60029 3.85401C4.1716 3.87655 3.09776 3.95871 3.09776 3.95871C2.54879 3.99597 1.93628 4.5482 1.84157 5.08952C1.84157 5.08952 1.72882 5.60391 1.66915 6.05675ZM7.13036 7.24387C7.13137 6.82769 7.42737 6.65468 7.78635 6.85458L10.9768 8.6312C11.3381 8.83238 11.335 9.16136 10.9751 9.36311L7.77593 11.1561C7.41366 11.3592 7.12081 11.1857 7.12181 10.7702L7.13036 7.24387Z" fill="black"/>
</svg>
