<svg width="18" height="18" viewBox="0 0 18 18" fill="none" xmlns="http://www.w3.org/2000/svg">
<path fill-rule="evenodd" clip-rule="evenodd" d="M16.856 8.93105L12.4808 6.28223C12.3408 5.91797 11.8227 4.58608 11.2286 3.26874C9.93359 0.396139 9.39209 0 8.99996 0C8.60782 0 8.06652 0.39594 6.7713 3.26854C6.17743 4.58588 5.65915 5.91777 5.51911 6.28203L1.1439 8.93105C1.01319 9.01016 0.963406 9.17575 1.02847 9.31444C1.09352 9.45313 1.2522 9.51988 1.3966 9.46887C1.40771 9.46488 2.21301 9.18731 3.6205 9.0279C3.17977 9.41965 3.02724 10.0794 3.29065 10.6429L3.78831 11.707L2.00494 14.5091C1.93929 14.6121 1.94286 14.7446 2.01367 14.844C2.08428 14.9435 2.20825 14.9893 2.32627 14.9604L3.66414 14.6314L3.99697 15.8653C3.66315 16.4047 3.47432 17.036 3.47432 17.7011C3.47432 17.8663 3.60741 18 3.77185 18H14.2564C14.4209 18 14.554 17.8663 14.554 17.7011C14.554 17.0413 14.3635 16.4111 14.0299 15.8715L14.3643 14.6312L15.702 14.9602C15.82 14.9893 15.944 14.9433 16.0146 14.8438C16.0854 14.7444 16.089 14.6119 16.0233 14.5089L14.2237 11.6813L14.7095 10.6427C14.815 10.4168 14.8535 10.1719 14.8301 9.92638C16.14 9.75701 16.7854 9.47684 16.8233 9.4599C16.9246 9.41467 16.9925 9.31663 16.9994 9.20544C17.0064 9.09425 16.951 8.98864 16.856 8.93105ZM6.39284 5.67945C7.09004 5.83408 8.22837 6.03534 9.43712 6.03534C10.1728 6.03534 10.9339 5.96021 11.637 5.75517C11.7122 5.94447 11.7864 6.13377 11.8588 6.32228C9.87111 7.09443 7.08092 6.51158 6.15681 6.28143C6.23396 6.08137 6.31291 5.88031 6.39284 5.67945ZM3.80477 13.9816C3.96167 13.9436 4.12054 14.0372 4.16259 14.1936L4.45496 15.2776C4.74257 14.9809 5.08512 14.7342 5.4723 14.5527C5.06271 14.0283 4.75784 13.4189 4.62515 12.7551C4.41668 12.6585 4.23737 12.5087 4.10309 12.3223L2.90664 14.2024L3.80477 13.9816ZM14.2239 13.9816C14.0676 13.9436 13.9083 14.0372 13.8661 14.1938L13.5729 15.2814C13.2794 14.9766 12.9301 14.7233 12.5363 14.5414C12.9416 14.0193 13.2435 13.4143 13.3752 12.7551C13.5916 12.6549 13.7766 12.4977 13.9123 12.3016L15.122 14.2024L14.2239 13.9816ZM13.4862 11.8533L14.1709 10.3889C14.2297 10.2629 14.2521 10.1264 14.2398 9.98955C13.9079 10.0184 13.5446 10.0396 13.1459 10.0483V11.1979C13.1459 11.3631 13.0128 11.4968 12.8483 11.4968C12.6839 11.4968 12.5508 11.3631 12.5508 11.1979V10.0491C11.7102 10.03 10.9083 9.87716 10.0903 9.68507C9.03883 9.98776 8.15737 10.1003 7.43279 10.1003C6.31846 10.1003 5.57286 9.83831 5.13074 9.60756V11.1979C5.13074 11.3631 4.99765 11.4968 4.83322 11.4968C4.66878 11.4968 4.53569 11.3631 4.53569 11.1979V9.29651C4.41252 9.28873 4.28875 9.30966 4.1745 9.36605C3.80556 9.54838 3.65065 10.0073 3.82897 10.3891L4.51367 11.8533C4.60472 12.0476 4.76796 12.1884 4.97345 12.25C5.08373 12.2831 5.16525 12.3769 5.18271 12.4913C5.47111 14.3871 7.47147 15.8573 9.00015 15.8573C10.5284 15.8573 12.5288 14.3869 12.8172 12.4913C12.8347 12.3769 12.9162 12.2831 13.0265 12.25C13.232 12.1884 13.3954 12.0476 13.4862 11.8533ZM5.15256 8.92388C5.29795 8.92029 5.44612 8.9181 5.59865 8.9181C6.75186 8.9181 7.79835 9.13191 8.80478 9.37302C6.6142 9.75701 5.49075 9.15722 5.15256 8.92388ZM9.36254 12.097C9.36254 11.9318 9.49563 11.7981 9.66007 11.7981C9.8245 11.7981 9.95759 11.9318 9.95759 12.097V12.9797C9.95759 13.5016 9.53491 13.9262 9.01543 13.9262C8.49595 13.9262 8.07327 13.5016 8.07327 12.9797V12.097C8.07327 11.9318 8.20636 11.7981 8.37079 11.7981C8.53522 11.7981 8.66832 11.9318 8.66832 12.097V12.9797C8.66832 13.172 8.82402 13.3284 9.01543 13.3284C9.20684 13.3284 9.36254 13.172 9.36254 12.9797V12.097ZM7.16919 11.7425C7.46978 11.7425 7.71346 11.4977 7.71346 11.1957C7.71346 10.8937 7.46978 10.6489 7.16919 10.6489C6.86859 10.6489 6.62491 10.8937 6.62491 11.1957C6.62491 11.4977 6.86859 11.7425 7.16919 11.7425ZM6.94465 11.9218C7.10135 11.9673 7.26598 11.9487 7.4082 11.8698C7.5282 11.8031 7.67895 11.8469 7.74519 11.9671C7.81144 12.0874 7.768 12.2391 7.6482 12.3056C7.48258 12.3977 7.3001 12.4445 7.11563 12.4445C7.01289 12.4445 6.90935 12.4297 6.80759 12.4005C6.48131 12.3066 6.21968 12.0711 6.09056 11.7548C6.03859 11.6275 6.09909 11.482 6.22583 11.4298C6.35198 11.3772 6.49737 11.4384 6.54934 11.5657C6.62055 11.7403 6.76475 11.87 6.94465 11.9218ZM10.8627 11.7449C11.1634 11.7449 11.4071 11.5 11.4071 11.1979C11.4071 10.8958 11.1634 10.6509 10.8627 10.6509C10.562 10.6509 10.3182 10.8958 10.3182 11.1979C10.3182 11.5 10.562 11.7449 10.8627 11.7449ZM11.4819 11.5689C11.5339 11.4416 11.6791 11.3808 11.8054 11.433C11.932 11.4854 11.9925 11.6309 11.9405 11.758C11.8114 12.0741 11.5495 12.3092 11.2225 12.4034C11.1215 12.4325 11.0186 12.4469 10.9164 12.4469C10.7314 12.4469 10.5485 12.3997 10.3823 12.307C10.2627 12.2402 10.2194 12.0888 10.2859 11.9684C10.3521 11.8479 10.5033 11.8049 10.6229 11.8716C10.7649 11.9507 10.9295 11.97 11.0862 11.9246C11.2665 11.8726 11.4107 11.7431 11.4819 11.5689Z" fill="black"/>
</svg>
