<svg width="18" height="18" viewBox="0 0 18 18" fill="none" xmlns="http://www.w3.org/2000/svg">
<path fill-rule="evenodd" clip-rule="evenodd" d="M17.7024 8.7424H16.3826C16.0587 8.38837 15.0442 7.25411 14.3469 6.18894C14.0982 5.80881 13.8708 5.32494 13.674 4.83455C13.7609 4.7308 13.8153 4.59751 13.8153 4.44994C13.8153 4.15236 13.6008 3.90818 13.3223 3.86599C13.145 3.32974 13.0204 2.87603 12.9638 2.66162L13.6962 1.46926C13.7839 1.32639 13.7423 1.13765 13.6034 1.04756C13.4643 0.95747 13.2808 1.00027 13.193 1.14295L12.4516 2.34957C12.0838 2.48429 10.531 3.01687 8.96876 3.01687C7.25797 3.01687 5.63208 2.37912 5.49857 2.32551L4.82767 1.1511C4.74435 1.00557 4.56224 0.95645 4.4204 1.04226C4.27876 1.12766 4.23135 1.31517 4.31447 1.4607L5.02922 2.71074C4.89789 3.12918 4.57018 4.14237 4.201 5.04999C3.89867 5.06853 3.65804 5.32392 3.65804 5.63923C3.65804 5.7226 3.67511 5.80168 3.70526 5.87383C3.45888 5.9413 3.27617 6.16998 3.27617 6.44453C3.27617 6.53829 3.29938 6.62593 3.33707 6.7046C2.74492 7.55556 1.92385 8.44116 1.63759 8.7422H0.297563C0.13311 8.7422 0 8.87896 0 9.04793C0 9.2169 0.13311 9.35366 0.297563 9.35366H1.58958C1.92404 9.73787 3.39004 11.4394 3.82865 12.2359C3.98735 12.5243 4.17362 12.9747 4.35355 13.4543C4.27956 13.5546 4.23413 13.6781 4.23472 13.8137C4.23611 14.0958 4.42953 14.3299 4.68662 14.3884C4.80902 14.7468 4.91416 15.07 4.98657 15.2967L4.3107 16.5457C4.23095 16.6932 4.28253 16.8793 4.42635 16.9615C4.47198 16.9876 4.52157 17 4.57057 17C4.67512 17 4.77668 16.9433 4.83104 16.8427L5.3736 15.8399C5.41049 15.8401 5.44739 15.8341 5.48231 15.8201C5.49798 15.8138 7.0705 15.1958 8.84834 15.1958C10.3348 15.1958 11.8904 15.6256 12.3854 15.7748L12.9799 16.8457C13.0347 16.9446 13.1352 17 13.2386 17C13.2886 17 13.3392 16.987 13.3858 16.9596C13.5286 16.8761 13.5782 16.6892 13.4969 16.5426L12.948 15.5539C13.0372 15.2702 13.3771 14.2095 13.7621 13.236C13.9474 13.1987 14.1176 13.0868 14.2231 12.9079C14.2426 12.8751 14.2565 12.8406 14.2701 12.8062C14.3275 13.0581 14.2884 13.3182 14.1579 13.5397C14.1011 13.6361 14.1311 13.7613 14.2247 13.8198C14.2569 13.8398 14.2924 13.8493 14.3273 13.8493C14.3943 13.8493 14.4598 13.8145 14.4971 13.7511C14.6844 13.4331 14.7401 13.0593 14.6538 12.6984C14.6417 12.6482 14.6266 12.5995 14.6098 12.5516L14.9772 12.7803C15.0093 12.8003 15.0448 12.8099 15.0797 12.8099C15.1468 12.8099 15.2122 12.775 15.2495 12.7116C15.3063 12.6152 15.2763 12.4901 15.1827 12.4316L14.8163 12.2035C14.8649 12.1968 14.9135 12.1882 14.9617 12.1762C15.313 12.0875 15.6096 11.8635 15.7968 11.5458C15.8536 11.4493 15.8236 11.3242 15.73 11.2657C15.636 11.2072 15.5144 11.2382 15.4574 11.3344C15.3249 11.5592 15.1152 11.7176 14.8669 11.7804C14.7875 11.8003 14.7078 11.806 14.6282 11.8052C14.6903 11.7622 14.7451 11.7062 14.7865 11.6358C14.8661 11.5009 14.8813 11.3452 14.8433 11.2044C15.4384 10.3999 16.197 9.58745 16.4199 9.35326H17.7024C17.8669 9.35326 18 9.21649 18 9.04752C18 8.87856 17.8667 8.7424 17.7024 8.7424ZM12.7714 4.10426C12.7028 4.20189 12.6613 4.32072 12.6613 4.44994C12.6613 4.7308 12.852 4.96479 13.1071 5.02614C13.3209 5.5628 13.5723 6.10068 13.8532 6.53013C14.3965 7.3603 15.1067 8.21043 15.5733 8.7424H13.3263C13.111 8.50577 12.5332 7.85395 12.133 7.24249C11.7621 6.67566 11.4695 5.71139 11.3516 5.28622L12.5377 3.35562C12.6008 3.57229 12.6794 3.82767 12.7714 4.10426ZM8.95051 12.2606C8.8533 12.0741 8.66405 11.9457 8.44366 11.9457C8.20263 11.9457 7.99672 12.0977 7.91042 12.3133C7.64877 12.3502 7.41091 12.3996 7.20778 12.4501L8.85211 9.41073L10.5724 12.5092C10.1636 12.4069 9.56686 12.2866 8.95051 12.2606ZM8.85747 8.20024L7.43789 5.71709C7.82572 5.8084 8.29884 5.88647 8.79062 5.88647C9.39626 5.88647 9.98761 5.76846 10.4223 5.65289L8.85747 8.20024ZM8.47718 8.7424H5.11948C5.4224 8.39509 5.79772 7.92998 6.02586 7.51968C6.29842 7.02909 6.5817 6.23439 6.75131 5.72341L8.47718 8.7424ZM8.20184 9.35387L6.68129 12.1646C6.51564 11.6752 6.28831 11.0503 6.10481 10.717C5.90981 10.3632 5.44085 9.77741 5.08714 9.35387H8.20184ZM9.50516 9.35387H12.5104C12.2112 9.6969 11.8424 10.152 11.622 10.5419C11.4062 10.9241 11.1709 11.5372 10.995 12.037L9.50516 9.35387ZM9.22823 8.7424L10.9327 5.9682C11.0947 6.47245 11.3399 7.12631 11.6393 7.58368C11.9121 8.0007 12.2531 8.42444 12.5238 8.7424H9.22823ZM8.96915 3.62813C10.1203 3.62813 11.2392 3.36622 11.9577 3.15384L10.9101 4.85901C10.9063 4.86023 10.9025 4.86064 10.8989 4.86206C10.8886 4.86614 9.84478 5.27501 8.79081 5.27501C8.0721 5.27501 7.3756 5.08321 7.00603 4.96153L5.96039 3.13244C6.65312 3.34849 7.77969 3.62813 8.96915 3.62813ZM3.83876 7.03622C3.84353 7.03622 3.84809 7.03765 3.85305 7.03765C4.17164 7.03765 4.43012 6.77207 4.43012 6.44473C4.43012 6.36137 4.41306 6.28229 4.38291 6.21034C4.62949 6.14287 4.812 5.91398 4.812 5.63944C4.812 5.52876 4.78045 5.42644 4.72927 5.33778C5.0068 4.66232 5.25874 3.93488 5.43053 3.4131L6.35159 5.0241C6.34702 5.0349 6.34147 5.0453 6.3379 5.05692C6.33354 5.07139 5.89413 6.52341 5.50909 7.2164C5.19724 7.77772 4.53903 8.49517 4.30554 8.7422H2.46005C2.85403 8.30704 3.40274 7.66745 3.83876 7.03622ZM5.2508 14.192C5.3365 14.0878 5.38986 13.9547 5.38907 13.8078C5.38768 13.5147 5.17839 13.2737 4.90602 13.2275C4.71737 12.7259 4.51959 12.2489 4.3468 11.9348C3.97287 11.2559 2.96373 10.0344 2.38428 9.35366H4.29721C4.64794 9.75804 5.36526 10.6157 5.58685 11.0181C5.82292 11.4467 6.16511 12.4937 6.29009 12.8873L5.37875 14.5721C5.33888 14.4522 5.29623 14.3251 5.2508 14.192ZM8.84834 14.5845C7.57576 14.5845 6.42737 14.8729 5.78999 15.0702L6.79694 13.2089C6.96159 13.1498 7.42262 12.998 8.00326 12.9173C8.109 13.0471 8.26591 13.1313 8.44366 13.1313C8.64283 13.1313 8.81859 13.0275 8.92234 12.8698C9.91699 12.9116 10.9039 13.236 10.9144 13.2395C10.9376 13.2473 10.9612 13.2509 10.985 13.2526L11.969 15.0246C11.2215 14.8328 10.0289 14.5845 8.84834 14.5845ZM14.3902 10.8061C14.1886 10.7822 13.9825 10.8764 13.8706 11.0664C13.8294 11.1365 13.8063 11.2123 13.7978 11.2889C13.7603 11.2168 13.7282 11.1414 13.7087 11.0601C13.6478 10.8049 13.6871 10.5405 13.8196 10.3159C13.8764 10.2195 13.8464 10.0943 13.7528 10.0359C13.6587 9.97736 13.5369 10.0083 13.4802 10.1045C13.2929 10.4225 13.2372 10.7963 13.3235 11.1573C13.3354 11.2068 13.3501 11.2549 13.3667 11.302L13.0009 11.0743C12.9071 11.0158 12.7851 11.0468 12.7284 11.143C12.6716 11.2394 12.7016 11.3646 12.7952 11.4231L13.1624 11.6515C13.1132 11.6583 13.0642 11.667 13.0154 11.6795C12.6641 11.7681 12.3675 11.9921 12.1801 12.3099C12.1233 12.4063 12.1533 12.5314 12.2469 12.5899C12.3407 12.6484 12.4627 12.6174 12.5195 12.5212C12.6502 12.2997 12.8563 12.1434 13.1001 12.0792C13.0767 12.1075 13.0537 12.1362 13.0343 12.169C12.8549 12.4733 12.9246 12.8586 13.1807 13.0811C12.9297 13.7211 12.7028 14.3805 12.5508 14.8401L11.386 12.7414C11.5431 12.2626 11.8652 11.3289 12.1366 10.8487C12.4383 10.3147 13.0904 9.60131 13.3233 9.35366H15.5971C15.2594 9.72645 14.7952 10.2611 14.3902 10.8061Z" fill="black"/>
</svg>
