<svg width="18" height="18" viewBox="0 0 18 18" fill="none" xmlns="http://www.w3.org/2000/svg">
<path fill-rule="evenodd" clip-rule="evenodd" d="M13.3399 4.18511C13.6175 4.12248 13.9039 4.09071 14.1908 4.09071C16.2909 4.09071 17.9998 5.77662 18 7.84859V11.6094C18 13.6816 16.2912 15.3673 14.1908 15.3673C13.9642 15.3673 13.7371 15.3477 13.5156 15.3086C13.4549 15.2978 13.4018 15.2716 13.3573 15.2364C12.6497 15.7214 11.768 16 10.8077 16C10.1843 16 9.56357 15.8615 9 15.5979C8.43666 15.8615 7.81591 16 7.1928 16C6.25649 16 5.39148 15.7317 4.69049 15.2649C4.40364 15.3321 4.10762 15.3673 3.809 15.3673C1.7086 15.3673 0 13.6816 0 11.6094V7.84882C0 5.77662 1.70884 4.09094 3.809 4.09094C4.06738 4.09094 4.32599 4.11654 4.5773 4.16728C4.61024 4.17391 4.63989 4.18625 4.66837 4.20042C5.36889 3.72911 6.23837 3.45826 7.1928 3.45826C7.46764 3.45826 7.74178 3.48683 8.01098 3.5394V2.97141C8.01098 2.43588 8.45478 2 9 2C9.54522 2 9.98902 2.43588 9.98902 2.97141V3.53963C10.2585 3.48683 10.5326 3.45826 10.8077 3.45826C11.7416 3.45826 12.608 3.72706 13.3102 4.19494L13.3147 4.19341L13.3206 4.19125C13.3269 4.18892 13.3332 4.18658 13.3399 4.18511ZM9 2.6857C8.84399 2.6857 8.71692 2.81393 8.71692 2.97141V3.74169C8.81246 3.77826 8.90729 3.81688 9 3.86031C9.09271 3.81688 9.18754 3.77826 9.28308 3.74169V2.97141C9.28308 2.81393 9.15601 2.6857 9 2.6857ZM17.2938 11.6092C17.2938 13.3034 15.9017 14.6814 14.1905 14.6814C14.1441 14.6814 14.0979 14.6787 14.0517 14.676L14.0103 14.6736C14.4171 14.2384 14.7223 13.7141 14.8875 13.1203C14.9383 12.9374 14.8268 12.7493 14.6386 12.6999C14.451 12.6506 14.2566 12.7587 14.2058 12.9418C13.8119 14.3607 12.4462 15.3141 10.8077 15.3141C10.2304 15.3141 9.67864 15.1785 9.16754 14.9111C9.06306 14.8565 8.93717 14.8565 8.83269 14.9111C8.32183 15.1783 7.77002 15.3141 7.19304 15.3141C5.58185 15.3141 4.22221 14.3827 3.80971 12.9962C3.75559 12.8145 3.55981 12.7089 3.37274 12.7621C3.18543 12.8147 3.07765 13.0048 3.13177 13.1866C3.29979 13.7516 3.59769 14.2521 3.98925 14.6707C3.96841 14.6718 3.94762 14.6735 3.92684 14.6752C3.8878 14.6783 3.84879 14.6814 3.80948 14.6814C2.09852 14.6814 0.706408 13.3031 0.706408 11.6092V7.84859C0.706408 6.15468 2.09852 4.77641 3.80948 4.77641C3.85024 4.77641 3.89077 4.77913 3.9314 4.78186L3.93141 4.78186C3.94847 4.78301 3.96555 4.78415 3.98267 4.7851C3.55204 5.24909 3.2372 5.81571 3.08118 6.46004C3.03647 6.64427 3.15413 6.82895 3.34403 6.87215C3.37109 6.87832 3.39838 6.88152 3.42521 6.88152C3.58522 6.88152 3.73018 6.77501 3.7683 6.61707C4.12644 5.13778 5.50302 4.14397 7.19327 4.14397C7.77049 4.14397 8.32207 4.27951 8.83293 4.54693C8.93741 4.60179 9.0633 4.60179 9.16778 4.54693C9.67888 4.27951 10.2307 4.14397 10.8079 4.14397C12.4212 4.14397 13.7439 5.03652 14.1771 6.41798C14.2341 6.59924 14.4324 6.70049 14.6176 6.6461C14.804 6.59078 14.9092 6.39924 14.8522 6.21799C14.6816 5.67491 14.3896 5.19218 14.0093 4.7867C14.029 4.78558 14.0487 4.78413 14.0684 4.78267C14.1092 4.77966 14.15 4.77664 14.1908 4.77664C15.9017 4.77664 17.2941 6.1549 17.2941 7.84882V11.6092H17.2938ZM11.3745 11.5996H13.0125C13.2074 11.5996 13.3655 11.753 13.3655 11.9425C13.3655 12.1319 13.2074 12.2853 13.0125 12.2853H11.7275V12.8186C11.7275 13.008 11.5694 13.1614 11.3745 13.1614H9.78218C9.58734 13.1614 9.42921 13.008 9.42921 12.8186V12.2853H8.54302V12.8186C8.54302 13.008 8.38513 13.1614 8.19005 13.1614H6.59746C6.40238 13.1614 6.24449 13.008 6.24449 12.8186V12.2853H5.00533C4.81026 12.2853 4.65236 12.1319 4.65236 11.9425C4.65236 11.753 4.81026 11.5996 5.00533 11.5996H6.59746C6.79253 11.5996 6.95043 11.753 6.95043 11.9425V12.4757H7.83708V11.9425C7.83708 11.753 7.99498 11.5996 8.19005 11.5996H9.78218C9.97702 11.5996 10.1351 11.753 10.1351 11.9425V12.4757H11.0216V11.9425C11.0216 11.753 11.1797 11.5996 11.3745 11.5996ZM6.13578 10.6634C6.98878 10.6634 7.75543 10.2033 8.13664 9.46296C8.16464 9.40879 8.16911 9.34594 8.14935 9.28857C8.12958 9.23097 8.08722 9.18343 8.03145 9.15623L4.45353 7.4182C4.33705 7.36151 4.19586 7.40768 4.13774 7.52037C3.87066 8.03922 3.82759 8.62778 4.01631 9.17794C4.20504 9.7281 4.60318 10.174 5.13734 10.4335C5.45125 10.5861 5.78728 10.6634 6.13578 10.6634ZM9.98572 9.15645L13.5639 7.41843C13.6801 7.36197 13.8213 7.40768 13.8794 7.52082C14.1465 8.03967 14.1898 8.62823 14.0009 9.1784C13.8121 9.72856 13.414 10.1745 12.8798 10.4339C12.5659 10.5864 12.2299 10.6636 11.8814 10.6636C11.0284 10.6636 10.2617 10.2038 9.88054 9.46319C9.85277 9.40902 9.84807 9.34617 9.86783 9.2888C9.88736 9.2312 9.92996 9.18365 9.98572 9.15645Z" fill="black"/>
</svg>
