<svg width="18" height="18" viewBox="0 0 18 18" fill="none" xmlns="http://www.w3.org/2000/svg">
<path fill-rule="evenodd" clip-rule="evenodd" d="M13.3401 3.28095C13.6178 3.21558 13.9041 3.18241 14.191 3.18241C16.2912 3.18241 18 4.94227 18 7.10512V13.4169C18 15.58 16.2912 17.3396 14.1908 17.3396C13.9642 17.3396 13.7371 17.3191 13.5156 17.2783C13.4549 17.267 13.4018 17.2396 13.3573 17.2029C12.6497 17.7092 11.768 18 10.8077 18C10.1843 18 9.56357 17.8554 9 17.5803C8.43666 17.8554 7.81567 18 7.1928 18C6.25626 18 5.39125 17.7199 4.69025 17.2327C4.4034 17.3028 4.10762 17.3396 3.809 17.3396C1.70884 17.3396 0 15.58 0 13.4169V7.10536C0 4.94227 1.70884 3.18265 3.809 3.18265C4.06761 3.18265 4.32622 3.20937 4.57754 3.26234C4.61048 3.26926 4.64036 3.2819 4.6686 3.29694C5.36913 2.80496 6.23861 2.52222 7.19303 2.52222C7.46788 2.52222 7.74178 2.55205 8.01122 2.60692V2.01402C8.01122 1.455 8.45502 1 9.00024 1C9.54545 1 9.98925 1.455 9.98925 2.01402V2.60716C10.2587 2.55205 10.5328 2.52222 10.8079 2.52222C11.7419 2.52222 12.6083 2.80281 13.3105 3.29121C13.314 3.29003 13.3174 3.2887 13.3208 3.28736C13.3271 3.28493 13.3334 3.28249 13.3401 3.28095ZM9.00024 1.71578C8.84422 1.71578 8.71715 1.84963 8.71715 2.01402V2.81808C8.81269 2.85625 8.90729 2.89658 9.00024 2.94191C9.09295 2.89658 9.18778 2.85625 9.28332 2.81808V2.01402C9.28332 1.84963 9.15625 1.71578 9.00024 1.71578ZM17.2941 13.4166C17.2941 15.1851 15.902 16.6236 14.1908 16.6236C14.1444 16.6236 14.0982 16.6207 14.052 16.6179L14.0519 16.6179L14.0105 16.6154C14.4174 16.1612 14.7226 15.6138 14.8878 14.994C14.9386 14.8031 14.827 14.6067 14.6388 14.5552C14.4508 14.5037 14.2569 14.6165 14.2061 14.8076C13.8121 16.2888 12.4464 17.284 10.8079 17.284C10.2307 17.284 9.67888 17.1425 9.16754 16.8633C9.06306 16.8061 8.93717 16.8066 8.83269 16.8633C8.32183 17.1423 7.77002 17.284 7.19304 17.284C5.58161 17.284 4.22221 16.3117 3.80995 14.8644C3.75582 14.6745 3.55934 14.5647 3.37297 14.6199C3.18566 14.6745 3.07765 14.873 3.13177 15.0629C3.29979 15.6527 3.59769 16.1752 3.98925 16.6123C3.96841 16.6136 3.94766 16.6153 3.92691 16.617C3.88792 16.6203 3.84895 16.6236 3.80948 16.6236C2.09852 16.6236 0.706408 15.1848 0.706408 13.4166V7.10512C0.706408 5.33691 2.09828 3.89819 3.80948 3.89819C3.85032 3.89819 3.89093 3.90104 3.93156 3.90389C3.94851 3.90508 3.96546 3.90627 3.98243 3.90726C3.55204 4.3916 3.23696 4.98307 3.08095 5.65567C3.03647 5.84821 3.15389 6.04076 3.34356 6.08609C3.37085 6.09253 3.39791 6.09587 3.42474 6.09587C3.58499 6.09587 3.72994 5.98469 3.76806 5.81982C4.12644 4.27565 5.50278 3.23824 7.19327 3.23824C7.77026 3.23824 8.32207 3.37973 8.83293 3.65888C8.93717 3.71591 9.06306 3.71614 9.16778 3.65888C9.67911 3.37973 10.2309 3.23824 10.8081 3.23824C12.4214 3.23824 13.7441 4.16995 14.1773 5.61201C14.2343 5.80097 14.4327 5.90691 14.6179 5.85012C14.8042 5.79238 14.9094 5.59244 14.8525 5.40324C14.6819 4.83634 14.3898 4.33243 14.0096 3.90917C14.0292 3.908 14.0489 3.90648 14.0686 3.90497L14.0686 3.90496C14.1094 3.90182 14.1502 3.89867 14.191 3.89867C15.902 3.89867 17.2943 5.33739 17.2943 7.1056V13.4166H17.2941ZM14.2472 11.6687C14.3171 11.6038 14.3856 11.59 14.4308 11.59C14.5527 11.59 14.696 11.689 14.6983 11.9681C14.7047 12.6934 13.6943 14.7788 9.12989 14.8711C9.11672 14.8744 9.10424 14.8756 9.08965 14.8759L9.00541 14.8737L8.92705 14.8759H8.92564C8.91176 14.8759 8.89811 14.8742 8.88493 14.8711C4.32316 14.778 3.31249 12.6934 3.31885 11.9684C3.3212 11.6892 3.46451 11.59 3.5864 11.59C3.63158 11.59 3.70005 11.6038 3.76994 11.6687C4.07491 11.9526 5.211 12.1731 5.62303 12.2339C5.70986 12.2468 5.7741 12.322 5.7741 12.411V12.885H6.58852V12.411C6.58852 12.3122 6.66758 12.232 6.765 12.232H8.35736C8.45478 12.232 8.53385 12.3122 8.53385 12.411V12.885H9.48333V12.411C9.48333 12.3122 9.5624 12.232 9.65982 12.232H11.2522C11.3496 12.232 11.4287 12.3122 11.4287 12.411V12.885H12.2431V12.411C12.2431 12.3222 12.3076 12.2468 12.3941 12.2339C12.8062 12.1728 13.9425 11.9521 14.2472 11.6687ZM6.14331 10.5795C7.03538 10.5795 8.09899 10.0293 8.09899 7.4079C8.09899 7.28884 8.0404 7.17789 7.94321 7.11132C7.84579 7.04452 7.72202 7.03187 7.61377 7.07601C7.60601 7.07935 6.83348 7.39096 5.9687 7.39096C5.47878 7.39096 5.05687 7.2917 4.71425 7.09605C4.60507 7.03378 4.47117 7.0345 4.36293 7.09892C4.25469 7.1631 4.18809 7.28073 4.18809 7.4079C4.18786 7.53721 4.21021 10.5795 6.14331 10.5795ZM13.7517 7.4079C13.7517 7.53745 13.7293 10.5795 11.796 10.5795C10.9039 10.5795 9.8403 10.0293 9.84077 7.4079C9.84077 7.28884 9.89913 7.17741 9.99655 7.11109C10.0944 7.04428 10.218 7.0314 10.3265 7.07625L10.327 7.07646C10.3511 7.08607 11.116 7.39096 11.9711 7.39096C12.461 7.39096 12.8829 7.2917 13.2255 7.09606C13.3349 7.03378 13.4688 7.0345 13.5768 7.09892C13.6851 7.1631 13.7517 7.28073 13.7517 7.4079Z" fill="black"/>
</svg>
