<svg width="18" height="18" viewBox="0 0 18 18" fill="none" xmlns="http://www.w3.org/2000/svg">
<path fill-rule="evenodd" clip-rule="evenodd" d="M13.3399 3.3655C13.618 3.30184 13.9044 3.26955 14.1905 3.26955C16.2909 3.26955 17.9998 4.98292 18 7.08892V12.5373C18 14.6433 16.2912 16.3569 14.1908 16.3569C13.9642 16.3569 13.7371 16.3367 13.5156 16.297C13.4549 16.2863 13.402 16.2596 13.3573 16.2238C12.6499 16.7168 11.768 17 10.8077 17C10.1843 17 9.56357 16.859 9 16.5913C8.43666 16.8592 7.81591 17 7.1928 17C6.25649 17 5.39148 16.7273 4.69049 16.2529C4.4034 16.3212 4.10762 16.3569 3.809 16.3569C1.7086 16.3569 0 14.6433 0 12.5373V7.08869C0 5.49914 0.973959 4.13449 2.35454 3.55995C2.8974 2.86438 3.63417 2.61417 4.15703 2.52868L3.52381 1.60636C3.45557 1.50716 3.44403 1.38008 3.49298 1.27042C3.54192 1.16053 3.64476 1.0834 3.765 1.06598C4.06855 1.0223 4.36952 1 4.65966 1C6.29579 1 7.37846 1.68094 8.01075 2.26894V2.13164C8.01075 1.58708 8.45455 1.14427 8.99976 1.14427C9.54498 1.14427 9.98878 1.58708 9.98878 2.13164V2.70896C10.2582 2.65552 10.5324 2.62648 10.8074 2.62648C11.7414 2.62648 12.608 2.89969 13.3102 3.37549C13.3137 3.37434 13.3172 3.37304 13.3206 3.37175C13.3269 3.36938 13.3332 3.367 13.3399 3.3655ZM9.28308 2.13187C9.28308 1.9718 9.15625 1.84147 9 1.84147C8.84375 1.84147 8.71668 1.97157 8.71692 2.13187V2.9148C8.81246 2.95197 8.90729 2.99146 9 3.03537C9.09271 2.99123 9.18754 2.95174 9.28308 2.9148V2.13187ZM17.2938 12.5378C17.2938 14.2595 15.9017 15.6604 14.1905 15.6604C14.1443 15.6604 14.098 15.6577 14.0517 15.6549H14.0517H14.0516H14.0516L14.0103 15.6525C14.4171 15.2102 14.7223 14.6772 14.8875 14.0737C14.9383 13.8878 14.8268 13.6966 14.6386 13.6464C14.451 13.5967 14.2569 13.7064 14.2058 13.8922C13.8117 15.3345 12.4459 16.3035 10.8074 16.3035C10.2302 16.3035 9.67841 16.1657 9.16731 15.8939C9.06283 15.8382 8.93694 15.8382 8.83246 15.8939C8.32159 16.1657 7.76979 16.3035 7.1928 16.3035C5.58138 16.3035 4.22198 15.3568 3.80971 13.9475C3.75582 13.7624 3.55957 13.656 3.37274 13.7094C3.18543 13.7628 3.07742 13.9561 3.13154 14.1408C3.29955 14.7151 3.59746 15.2239 3.98902 15.6495C3.9682 15.6507 3.94747 15.6524 3.92674 15.6541L3.92669 15.6541C3.88769 15.6573 3.84872 15.6604 3.80924 15.6604C2.09828 15.6604 0.706173 14.2595 0.706173 12.5378V7.08892C0.706173 6.0602 1.20527 5.1488 1.97027 4.57961C1.99898 4.62863 2.03545 4.67324 2.08722 4.70437C2.11593 4.72179 2.55526 4.9799 3.24143 5.1732C3.17837 5.33605 3.12236 5.50309 3.08071 5.67757C3.036 5.86505 3.15366 6.05253 3.34332 6.09667C3.37062 6.10295 3.39768 6.10597 3.4245 6.10597C3.58452 6.10597 3.72947 5.99771 3.76759 5.8374C4.12597 4.33382 5.50255 3.32368 7.1928 3.32368C7.77002 3.32368 8.32159 3.46145 8.83246 3.73327C8.93694 3.78902 9.06283 3.78902 9.16731 3.73327C9.67841 3.46145 10.2302 3.32368 10.8074 3.32368C12.4205 3.32368 13.7432 4.2309 14.1766 5.63482C14.2336 5.81905 14.4317 5.9229 14.6171 5.86644C14.8035 5.81045 14.9087 5.61577 14.8518 5.43154C14.6814 4.87954 14.3891 4.38911 14.0089 3.97674C14.027 3.97562 14.0451 3.97426 14.0633 3.97289C14.1056 3.9697 14.148 3.96652 14.1903 3.96652C15.9012 3.96652 17.2936 5.36718 17.2936 7.08892V12.5378H17.2938ZM11.9861 6.99135C12.2221 6.99135 12.4565 7.02852 12.6826 7.1017C13.25 7.28523 13.7112 7.67577 13.9811 8.20174C14.251 8.72772 14.2974 9.32572 14.1115 9.88608C14.0922 9.94462 14.0498 9.99318 13.9943 10.0208C13.9611 10.0375 13.9244 10.0459 13.8879 10.0459C13.8632 10.0459 13.8385 10.042 13.8145 10.0343L10.0128 8.80485C9.88925 8.76489 9.82195 8.63363 9.86242 8.51166C10.1641 7.60235 11.0176 6.99135 11.9861 6.99135ZM8.15523 8.51166C7.85356 7.60235 7.00008 6.99135 6.03153 6.99135C5.79551 6.99135 5.56114 7.02829 5.33524 7.1017C4.76767 7.28523 4.30669 7.67577 4.03679 8.20151C3.76688 8.72725 3.72053 9.32548 3.90642 9.88584C3.92596 9.94439 3.96808 9.99294 4.02385 10.0206C4.05702 10.0373 4.0935 10.0457 4.13021 10.0457C4.15491 10.0457 4.17962 10.0417 4.20339 10.0341L8.0051 8.80462C8.12817 8.76489 8.1957 8.63386 8.15523 8.51166ZM9.11648 12.7051C10.4034 12.7051 11.456 12.4223 12.1602 11.8868C12.3146 11.7695 12.5365 11.7979 12.6551 11.9498C12.7742 12.1024 12.7452 12.3213 12.5909 12.4386C11.7499 13.0777 10.5811 13.4018 9.11648 13.4018C7.25069 13.4018 6.19413 12.8758 5.63621 12.4346C5.48419 12.3143 5.45972 12.095 5.58161 11.9449C5.70327 11.7946 5.92541 11.7702 6.07765 11.8908C6.54734 12.2623 7.45564 12.7051 9.11648 12.7051Z" fill="black"/>
</svg>
