<svg width="18" height="18" viewBox="0 0 18 18" fill="none" xmlns="http://www.w3.org/2000/svg">
<path fill-rule="evenodd" clip-rule="evenodd" d="M13.8599 2.52868C14.3849 2.61487 15.1257 2.86694 15.6692 3.56925C17.0371 4.14935 17.9995 5.50867 18 7.08915V12.5373C18 14.6433 16.2912 16.3569 14.1908 16.3569C13.9642 16.3569 13.7368 16.3367 13.5154 16.297C13.4549 16.2863 13.402 16.2596 13.3573 16.2238C12.6499 16.7168 11.768 17 10.8077 17C10.1846 17 9.56357 16.859 9 16.5913C8.43666 16.8592 7.81591 17 7.1928 17C6.25649 17 5.39148 16.7273 4.69049 16.2529C4.4034 16.3212 4.10762 16.3569 3.809 16.3569C1.7086 16.3569 0 14.6433 0 12.5373V7.08869C0 5.49914 0.973959 4.13449 2.35454 3.55995C2.8974 2.86438 3.63417 2.61417 4.15703 2.52868L3.52381 1.60636C3.45557 1.50716 3.44403 1.38008 3.49298 1.27042C3.54192 1.16053 3.64476 1.0834 3.765 1.06598C4.06855 1.0223 4.36952 1 4.65966 1C6.29579 1 7.37846 1.68094 8.01075 2.26894V2.13164C8.01075 1.58708 8.45455 1.14427 8.99976 1.14427C9.54498 1.14427 9.98878 1.58708 9.98878 2.13164V2.2852C10.6182 1.69348 11.7054 1 13.357 1C13.6472 1 13.9482 1.0223 14.2517 1.06598C14.372 1.0834 14.4748 1.16053 14.5237 1.27042C14.5727 1.37985 14.5611 1.50693 14.4929 1.60636L13.8599 2.52868ZM9.28285 2.13187C9.28285 1.9718 9.15601 1.84147 8.99976 1.84147C8.84352 1.84147 8.71668 1.9718 8.71668 2.13187V2.9148C8.81222 2.95197 8.90705 2.99146 8.99976 3.03537C9.09248 2.99123 9.18731 2.95174 9.28285 2.9148V2.13187ZM17.2936 12.5378C17.2936 14.2595 15.9015 15.6604 14.1903 15.6604C14.1442 15.6604 14.0982 15.6577 14.0521 15.655L14.01 15.6525C14.4167 15.2102 14.7221 14.6772 14.8873 14.0737C14.9381 13.8878 14.8266 13.6966 14.6383 13.6464C14.4498 13.5963 14.2564 13.7061 14.2056 13.8922C13.8114 15.3345 12.4457 16.3035 10.8072 16.3035C10.23 16.3035 9.67817 16.1657 9.16707 15.8939C9.06259 15.8382 8.9367 15.8382 8.83222 15.8939C8.32136 16.1657 7.76955 16.3035 7.19256 16.3035C5.58114 16.3035 4.22174 15.3568 3.80948 13.9475C3.75559 13.7624 3.5591 13.656 3.3725 13.7094C3.18519 13.7628 3.07718 13.9561 3.1313 14.1408C3.29932 14.7151 3.59722 15.2239 3.98878 15.6495C3.96794 15.6507 3.94719 15.6524 3.92644 15.6541C3.88744 15.6573 3.84847 15.6604 3.809 15.6604C2.09805 15.6604 0.705938 14.2595 0.705938 12.5378V7.08915C0.705938 6.06043 1.20504 5.14903 1.97004 4.57985C1.99874 4.62887 2.03522 4.67347 2.08699 4.7046C2.1157 4.72203 2.55502 4.98014 3.2412 5.17343C3.17813 5.33629 3.12213 5.50332 3.08048 5.6778C3.03577 5.86528 3.15342 6.05277 3.34309 6.09691C3.37038 6.10318 3.39744 6.1062 3.42427 6.1062C3.58428 6.1062 3.72923 5.99794 3.76735 5.83764C4.12574 4.33405 5.50231 3.32391 7.19256 3.32391C7.76979 3.32391 8.32136 3.46168 8.83222 3.7335C8.9367 3.78926 9.06259 3.78926 9.16707 3.7335C9.67817 3.46168 10.2302 3.32391 10.8072 3.32391C12.4205 3.32391 13.743 4.23113 14.1764 5.63505C14.2334 5.81905 14.4301 5.9229 14.6171 5.86668C14.8035 5.81069 14.9087 5.616 14.852 5.43177C14.8254 5.34535 14.7939 5.26125 14.7614 5.17761C15.456 4.98385 15.9015 4.72226 15.9302 4.70483C15.9787 4.67579 16.0137 4.63444 16.042 4.58937C16.7999 5.15926 17.2936 6.06601 17.2936 7.08939V12.5378ZM8.03145 9.09479C8.08722 9.12243 8.12958 9.17076 8.14935 9.22907C8.16911 9.28761 8.1644 9.35127 8.13664 9.40633C7.75543 10.1588 6.98878 10.6265 6.13601 10.6265H6.13578C5.78704 10.6265 5.45102 10.548 5.13734 10.393C4.60318 10.1293 4.20504 9.67606 4.01631 9.11686C3.82759 8.55766 3.87066 7.95943 4.13774 7.43206C4.19586 7.31729 4.33705 7.27106 4.45353 7.32821L8.03145 9.09479ZM13.5637 7.32821L9.98572 9.09479C9.92996 9.12243 9.8876 9.17076 9.86783 9.22907C9.84807 9.28761 9.85277 9.35127 9.88054 9.40656C10.2617 10.1591 11.0284 10.6267 11.8814 10.6267C12.2299 10.6267 12.5659 10.5482 12.8798 10.3932C13.414 10.1295 13.8119 9.67629 14.0009 9.11709C14.1898 8.55789 14.1465 7.95966 13.8794 7.43229C13.8211 7.31729 13.6799 7.27106 13.5637 7.32821ZM8.99976 10.5656C9.14354 10.5656 9.27296 10.6518 9.32685 10.7833L10.0516 12.5487C10.0838 12.601 10.1024 12.6628 10.1024 12.7288C10.1024 12.9211 9.94454 13.0772 9.74947 13.0772H9.74476H8.25476C8.13734 13.0772 8.02769 13.0196 7.96204 12.9235C7.89638 12.8273 7.88344 12.7053 7.92768 12.598L8.67268 10.7833C8.72657 10.6516 8.85599 10.5656 8.99976 10.5656Z" fill="black"/>
</svg>
