<svg width="18" height="18" viewBox="0 0 18 18" fill="none" xmlns="http://www.w3.org/2000/svg">
<path fill-rule="evenodd" clip-rule="evenodd" d="M17.0135 3.92189V7.22587C17.7445 7.67923 18.1496 8.60675 17.9487 9.52759L17.4158 11.9706C17.2906 12.5443 16.9429 13.039 16.4622 13.3282C16.1661 13.5062 15.8364 13.5977 15.5032 13.5992V15.5936C15.5032 16.9205 14.3992 18 13.0425 18H4.98613C3.6294 18 2.52569 16.9203 2.52569 15.5936V13.5982C2.18487 13.5972 1.84784 13.504 1.54597 13.3223C1.06497 13.0328 0.717058 12.5398 0.591304 11.9699L0.0521036 9.52685C-0.147535 8.62309 0.242127 7.71314 0.953891 7.25062C0.947312 7.2229 0.942505 7.19419 0.942505 7.16425V3.92189C0.942505 2.3106 2.28279 1 3.92999 1H14.0263C15.6735 1 17.0135 2.31085 17.0135 3.92189ZM16.6734 11.8155L17.2063 9.37243C17.3657 8.6419 16.9697 7.9126 16.3222 7.72823V10.6858C16.3222 11.1307 15.9359 11.4928 15.4609 11.4928C14.986 11.4928 14.5996 11.1307 14.5996 10.6858V7.65795V7.31273V6.52503C14.5996 5.63414 13.8588 4.90929 12.9476 4.90929H6.32565V6.33621H6.97163C7.16722 6.33621 7.32587 6.49113 7.32587 6.68267C7.32587 6.87421 7.16722 7.02913 6.97163 7.02913H6.32565V7.65795C6.32565 7.84949 6.167 8.00441 5.97141 8.00441C5.77582 8.00441 5.61718 7.84925 5.61718 7.65795V7.02913H4.9712C4.77561 7.02913 4.61696 6.87421 4.61696 6.68267C4.61696 6.49113 4.77561 6.33621 4.9712 6.33621H5.61718V4.90929H5.08076C4.16986 4.90929 3.42875 5.63414 3.42875 6.52503V7.30976L3.42889 7.31118L3.429 7.31223V10.6679C3.429 11.1225 3.03858 11.4923 2.55884 11.4923C2.07935 11.4923 1.68893 11.1225 1.68893 10.6679V7.72724C1.0341 7.91235 0.6328 8.64091 0.793725 9.36995L1.33318 11.813C1.41541 12.1862 1.63782 12.5057 1.94373 12.6895C2.20688 12.8484 2.51304 12.8949 2.80554 12.8209C2.83742 12.8123 2.87032 12.8063 2.90523 12.8063C3.00088 12.8063 3.08691 12.8422 3.15371 12.8991L3.15494 12.9002L3.15725 12.9019C3.17344 12.9162 3.18812 12.9318 3.20153 12.9484L3.20374 12.951L3.20785 12.9561C3.22025 12.9719 3.23088 12.9892 3.24049 13.0073L3.24366 13.0131L3.24682 13.0189C3.25542 13.0367 3.262 13.0548 3.26757 13.0736C3.2682 13.0758 3.26909 13.0778 3.26997 13.0798C3.27086 13.0818 3.27174 13.0837 3.27238 13.086C3.27263 13.0868 3.27269 13.0876 3.27276 13.0884C3.27282 13.0893 3.27288 13.0901 3.27314 13.0909C3.27668 13.1063 3.2787 13.1219 3.28047 13.1374L3.2815 13.1456C3.28254 13.1535 3.28357 13.1614 3.28376 13.1691L3.28425 13.1729C3.28452 13.1745 3.28477 13.1762 3.28477 13.178V15.5936C3.28477 16.511 4.04816 17.2576 4.98613 17.2576H13.0425C13.9807 17.2576 14.7441 16.511 14.7441 15.5936V13.178C14.7441 13.1763 14.7444 13.1747 14.7446 13.1731L14.7451 13.1696C14.7453 13.1615 14.7464 13.1535 14.7474 13.1452L14.7482 13.1397C14.7499 13.1226 14.7522 13.1055 14.7563 13.0892L14.7568 13.0867C14.7571 13.0857 14.7575 13.0847 14.758 13.0837L14.7582 13.0832L14.759 13.0813C14.8026 12.9239 14.9488 12.8071 15.1236 12.8071C15.1624 12.8071 15.1988 12.8143 15.2337 12.8246C15.5156 12.8942 15.8101 12.8486 16.0647 12.696C16.3696 12.5123 16.5915 12.1919 16.6734 11.8155ZM11.745 14.7349H6.2839C6.0744 14.7349 5.90436 14.9012 5.90436 15.1061C5.90436 15.311 6.0744 15.4773 6.2839 15.4773H11.745C11.9545 15.4773 12.1245 15.311 12.1245 15.1061C12.1245 14.9012 11.9545 14.7349 11.745 14.7349ZM4.90111 9.56991H13.128C13.3375 9.56991 13.5081 9.73646 13.5081 9.94136C13.5081 10.1463 13.338 10.3126 13.1285 10.3126H12.4061C12.4068 10.3213 12.408 10.3299 12.4092 10.3386V10.3386L12.4092 10.3386C12.4111 10.3521 12.413 10.3656 12.413 10.3796C12.4125 10.7974 12.0661 11.1359 11.6387 11.1357C11.2113 11.1354 10.8655 10.7966 10.8655 10.3789C10.8655 10.3645 10.8674 10.3506 10.8693 10.3366C10.8704 10.3286 10.8715 10.3205 10.8723 10.3123H7.15811C7.15879 10.3206 7.15993 10.3288 7.16107 10.3371L7.16107 10.3371C7.16288 10.3501 7.16469 10.3632 7.16469 10.3767C7.16418 10.7944 6.81779 11.1329 6.39068 11.1327C5.96357 11.1324 5.61718 10.7934 5.61768 10.3757C5.61768 10.3617 5.61955 10.3484 5.62143 10.335C5.62248 10.3275 5.62353 10.32 5.62426 10.3123H4.90111C4.6916 10.3123 4.52157 10.146 4.52157 9.94112C4.52157 9.73621 4.6916 9.56991 4.90111 9.56991ZM7.05412 11.8805C7.20694 11.7979 7.26236 11.6098 7.17785 11.4603C7.09359 11.3109 6.90129 11.2559 6.74821 11.3393C6.64371 11.3957 6.53161 11.4301 6.41649 11.4433L5.67714 11.1889C5.59364 11.1072 5.52356 11.0119 5.477 10.9016C5.4102 10.7434 5.22448 10.6689 5.06406 10.733C4.90238 10.7981 4.82546 10.9788 4.89175 11.1369C5.07165 11.5643 5.43449 11.8823 5.88741 12.0092C6.02834 12.0488 6.17156 12.0684 6.31426 12.0684C6.57058 12.0681 6.82386 12.005 7.05412 11.8805ZM12.5519 10.9058C12.6184 10.7474 12.8044 10.6731 12.9646 10.737C13.126 10.8021 13.2034 10.9827 13.1369 11.1406C12.9575 11.5677 12.5944 11.8852 12.1402 12.0124C11.9998 12.0518 11.8571 12.0713 11.7149 12.0713C11.4583 12.0713 11.2045 12.0075 10.9735 11.8823C10.8209 11.7996 10.7658 11.6113 10.8505 11.4618C10.935 11.3128 11.1276 11.2582 11.2804 11.3416C11.3844 11.398 11.4965 11.4326 11.6109 11.446L12.3522 11.1921C12.4355 11.1107 12.5056 11.0156 12.5519 10.9058Z" fill="black"/>
</svg>
