<svg width="18" height="18" viewBox="0 0 18 18" fill="none" xmlns="http://www.w3.org/2000/svg">
<path fill-rule="evenodd" clip-rule="evenodd" d="M16.2596 13.7147C15.7046 14.3772 15.1665 14.7941 14.7171 15.0563C15.5638 15.303 16.5466 15.7788 16.5464 16.658C16.5464 16.847 16.391 17 16.1995 17H1.80028C1.6088 17 1.45339 16.847 1.45339 16.658C1.45339 15.779 2.43623 15.3032 3.28287 15.0565C2.83353 14.7941 2.2954 14.3772 1.74038 13.7149C0.434473 12.156 0.0177478 6.45082 0.000865991 6.20871C-0.00954057 6.06349 0.074637 5.92762 0.210616 5.8704C0.346595 5.81341 0.504312 5.84737 0.603522 5.9552L1.86988 7.33079C2.02552 7.12174 2.23874 6.96124 2.50376 6.86048C2.61129 6.81967 2.71929 6.79346 2.82521 6.77613C2.87308 5.09028 3.44752 3.66135 4.4965 2.63433C5.58919 1.56469 7.10762 1 8.89062 1H8.94172C8.94517 1 8.94855 1.00052 8.95194 1.00103L8.95194 1.00104L8.95195 1.00104C8.95492 1.00149 8.95789 1.00195 8.96092 1.00205C8.96347 1.00187 8.96607 1.00149 8.96869 1.00111L8.96869 1.00111C8.97247 1.00056 8.97629 1 8.98011 1H9.02128C10.8087 1 12.3303 1.56651 13.4239 2.6398C14.4713 3.66796 15.0441 5.09757 15.0897 6.78343C15.1956 6.80075 15.3034 6.8272 15.4107 6.86823C15.6956 6.97697 15.9208 7.15434 16.0783 7.38687L17.3965 5.95498C17.4955 5.84714 17.6534 5.81318 17.7894 5.87017C17.9254 5.92739 18.0095 6.06326 17.9991 6.20848C17.9823 6.45059 17.5655 12.1558 16.2596 13.7147ZM2.75398 7.49835C2.53984 7.57996 2.40571 7.71196 2.33194 7.91394C2.06437 8.6471 2.6742 9.99441 2.94523 10.4773C3.55529 11.2841 4.10036 11.1933 4.12441 11.1892C4.12693 11.1887 4.12938 11.1886 4.13184 11.1885H4.13185L4.13493 11.1884L4.13805 11.1881C4.2886 11.1621 4.44354 11.2355 4.51176 11.3784C5.05799 12.5272 6.58267 15.1992 8.93132 15.2004C8.93552 15.2004 8.93956 15.2009 8.94358 15.2015H8.94359C8.94643 15.2019 8.94926 15.2023 8.95213 15.2024C8.95514 15.2022 8.95807 15.2019 8.96099 15.2015C8.96502 15.2009 8.96902 15.2004 8.97317 15.2004H8.97341H8.97526C11.3234 15.2004 12.8502 12.5306 13.3976 11.3828C13.4023 11.3735 13.408 11.3648 13.4136 11.3561L13.4136 11.3561L13.4191 11.3477C13.4986 11.222 13.6497 11.1612 13.794 11.1963L13.794 11.1963C13.815 11.1996 14.3571 11.2857 14.9653 10.4843C15.2368 10.0003 15.8475 8.65166 15.5813 7.92078C15.5078 7.71902 15.3739 7.58703 15.16 7.50519C14.9132 7.41081 14.6457 7.43679 14.4697 7.47259L14.4692 8.63091C14.4692 8.8199 14.3138 8.97287 14.1223 8.97287H14.1221C13.9306 8.97287 13.7755 8.81967 13.7755 8.63091L13.7762 7.15297C13.167 4.85341 12.4478 4.23151 11.3459 3.9087C9.92572 3.49333 9.2641 4.23607 9.23658 4.26798C9.17275 4.34162 9.08395 4.38174 8.99283 4.38767C8.87882 4.40203 8.76019 4.36122 8.68156 4.26753C8.64988 4.23105 7.98941 3.49333 6.57226 3.90619C5.45437 4.23196 4.72961 4.86367 4.11146 7.24461L4.11076 8.82401C4.11076 9.01299 3.95536 9.16596 3.76388 9.16596H3.76365C3.57217 9.16596 3.41699 9.01277 3.41699 8.82401L3.41746 7.46164C3.24216 7.42859 2.98917 7.40853 2.75398 7.49835ZM6.82225 8.82583C7.17272 8.82583 7.45682 8.54576 7.45682 8.20027C7.45682 7.85479 7.17272 7.57472 6.82225 7.57472C6.47179 7.57472 6.18768 7.85479 6.18768 8.20027C6.18768 8.54576 6.47179 8.82583 6.82225 8.82583ZM11.2696 11.1685C11.2083 11.132 11.1398 11.1188 11.0735 11.1247C11.0703 11.1245 11.0673 11.1241 11.0641 11.1236C11.0599 11.123 11.0556 11.1224 11.051 11.1224L7.03802 11.1201H7.03778C7.02189 11.1201 7.0064 11.1223 6.99112 11.1244L6.9911 11.1244L6.9876 11.1249C6.91568 11.1144 6.84006 11.1263 6.773 11.166C6.6199 11.2572 6.57088 11.4532 6.66315 11.6041L7.03755 12.216C7.09606 12.3115 7.20105 12.3701 7.31437 12.3701H7.3146C7.42792 12.3701 7.53291 12.3118 7.59164 12.216L7.87216 11.7589L10.1692 11.7603L10.4493 12.2178C10.5078 12.3136 10.6128 12.3722 10.7261 12.3722H10.7263C10.8396 12.3722 10.9446 12.3138 11.0034 12.2183L11.3785 11.6069C11.4714 11.4559 11.4226 11.2597 11.2696 11.1685ZM6.75958 9.62943C6.63979 9.62943 6.51954 9.61256 6.40113 9.57928C6.02002 9.47122 5.71546 9.20176 5.56491 8.84042C5.50432 8.69475 5.57485 8.52833 5.72263 8.4686C5.86994 8.40841 6.03899 8.4784 6.09981 8.62407C6.18283 8.82355 6.35095 8.97219 6.56093 9.03169C6.74339 9.08344 6.93534 9.06201 7.10138 8.97173C7.24037 8.89582 7.41705 8.94551 7.49405 9.08321C7.57129 9.22091 7.52065 9.39416 7.38097 9.47031C7.18787 9.57586 6.97488 9.62943 6.75958 9.62943ZM11.1285 8.82879C11.4791 8.82879 11.7633 8.54862 11.7633 8.20301C11.7633 7.8574 11.4791 7.57723 11.1285 7.57723C10.7779 7.57723 10.4937 7.8574 10.4937 8.20301C10.4937 8.54862 10.7779 8.82879 11.1285 8.82879ZM10.8487 8.97356C11.0152 9.06429 11.2069 9.08572 11.3889 9.0342C11.5993 8.9747 11.7677 8.82651 11.8502 8.62727C11.9111 8.48159 12.0801 8.41274 12.2277 8.47202C12.3752 8.53174 12.446 8.69816 12.3851 8.84384C12.2346 9.20517 11.9293 9.47395 11.5482 9.58179C11.4303 9.61507 11.3105 9.63171 11.1912 9.63171C10.9756 9.63171 10.7624 9.57768 10.5686 9.4719C10.4289 9.39553 10.3785 9.22227 10.4558 9.08458C10.5332 8.94711 10.7095 8.89741 10.8487 8.97356ZM10.6935 6.55386C10.5494 6.7661 10.0943 7.25989 8.98196 7.25989C8.20101 7.25989 7.66218 7.04286 7.28685 6.5762C7.16775 6.42825 7.19296 6.21327 7.34281 6.09586C7.49267 5.97846 7.71074 6.00308 7.83007 6.15103C7.99912 6.36122 8.2683 6.57597 8.98196 6.57597C9.61746 6.57597 9.98516 6.36806 10.1172 6.17337C10.2236 6.01653 10.4393 5.97458 10.5982 6.07945C10.7573 6.18454 10.8001 6.39701 10.6935 6.55386Z" fill="black"/>
</svg>
