<svg width="18" height="18" viewBox="0 0 18 18" fill="none" xmlns="http://www.w3.org/2000/svg">
<path fill-rule="evenodd" clip-rule="evenodd" d="M17.9984 8.6397C17.9894 8.53012 17.9364 8.42851 17.8521 8.35793C17.8378 8.34613 16.4359 7.16057 16.1234 5.53836C15.7598 3.65115 16.8725 0.584414 16.8838 0.55393C16.9576 0.352356 16.8645 0.127988 16.6698 0.037911C16.4754 -0.0518912 16.2436 0.0228067 16.1382 0.209551L11.3535 8.70094L9.34524 6.69316C9.217 6.56464 9.01982 6.5358 8.85944 6.62121C8.69934 6.70689 8.61421 6.88732 8.64991 7.06528C8.69907 7.31107 8.76525 8.08688 8.43516 8.41698C8.43186 8.42 8.42912 8.42302 8.4261 8.42632C8.42308 8.42934 8.42006 8.43208 8.41703 8.43538C8.25254 8.5996 7.94085 8.69023 7.53853 8.69023C7.27298 8.69023 7.06619 8.65041 7.06509 8.65014C6.88714 8.61388 6.70672 8.69957 6.62104 8.85967C6.53536 9.01978 6.56446 9.21696 6.69299 9.34548L8.70099 11.3538L0.209814 16.1383C0.0227997 16.2435 -0.0518963 16.475 0.0379036 16.67C0.127978 16.8647 0.352066 16.9581 0.554185 16.8839C0.576703 16.8757 2.84147 16.0515 4.68883 16.0515C5.00354 16.0515 5.28941 16.076 5.53849 16.124C7.14528 16.4333 8.3363 17.8262 8.35854 17.8525C8.42912 17.9368 8.53045 17.9896 8.64002 17.9986C8.65156 17.9997 8.66309 18 8.67463 18C8.77239 18 8.86741 17.9651 8.94238 17.9014C8.96352 17.8833 11.072 16.1021 13.0976 16.0793L13.169 16.079C15.4838 16.079 16.7533 17.3511 16.7649 17.3629C16.8409 17.4422 16.9458 17.4878 17.0562 17.4892C17.1674 17.4884 17.2724 17.4483 17.3506 17.3708C17.3523 17.3692 17.3696 17.3519 17.3712 17.35C17.4481 17.272 17.4901 17.166 17.489 17.0564C17.4879 16.9471 17.4426 16.8419 17.3643 16.7653C17.3512 16.7524 16.0533 15.4573 16.0797 13.0971C16.1022 11.0715 17.8836 8.96293 17.9018 8.94179C17.9729 8.8583 18.0081 8.74927 17.9984 8.6397Z" fill="black"/>
</svg>
