<svg width="18" height="18" viewBox="0 0 18 18" fill="none" xmlns="http://www.w3.org/2000/svg">
<path fill-rule="evenodd" clip-rule="evenodd" d="M17.7536 2.71233L15.2705 0.227608C14.9672 -0.0758693 14.4175 -0.0758693 14.0953 0.227608L13.1855 1.15701L14.1143 2.08641C14.3038 2.27608 14.3038 2.59852 14.1143 2.7882C14.0195 2.88303 13.9058 2.93994 13.7731 2.93994C13.6404 2.93994 13.5077 2.88303 13.4319 2.7882L12.5031 1.8588L11.3469 3.01581L12.2757 3.94521C12.4652 4.13488 12.4652 4.45732 12.2757 4.647C12.1809 4.74183 12.0671 4.77977 11.9345 4.77977C11.8018 4.77977 11.6691 4.74183 11.5933 4.647L10.6266 3.67966L9.28079 5.02634L12.9391 8.68704L17.7536 3.86934C17.9052 3.7176 18 3.50896 18 3.28135C18 3.05374 17.9052 2.86407 17.7536 2.71233ZM3.70808 10.6217L4.63687 11.5511C4.82642 11.7408 4.82642 12.0632 4.63687 12.2529C4.54209 12.3477 4.42837 12.3857 4.29568 12.3857C4.163 12.3857 4.03031 12.3477 3.9545 12.2529L3.02571 11.3235L1.86947 12.4805L2.79825 13.4099C2.9878 13.5996 2.9878 13.922 2.79825 14.1117C2.70348 14.2065 2.58975 14.2445 2.45707 14.2445C2.32438 14.2445 2.21065 14.1876 2.11588 14.1117L1.16814 13.1633L0.239355 14.0927C-0.0828765 14.4152 -0.0828764 14.9463 0.25831 15.2687L2.74139 17.7534C2.91198 17.9052 3.12048 18 3.32899 18C3.53749 18 3.74599 17.9241 3.91659 17.7534L8.71215 12.9547L5.03492 9.29399L3.70808 10.6217ZM5.73934 2.85219L2.87111 5.72232L12.5882 15.4459L15.4565 12.5758L5.73934 2.85219ZM16.5405 13.6754L16.1614 13.2961L13.2803 16.1602L13.6594 16.5395C13.7731 16.6533 13.9058 16.7102 14.0574 16.7482L16.2562 17.1085C16.749 17.1844 17.166 16.7671 17.0902 16.274L16.73 14.0738C16.7111 13.922 16.6542 13.7703 16.5405 13.6754ZM5.03492 2.16228L2.17274 5.02634L1.0165 3.86934C0.73218 3.58483 0.73218 3.12961 1.0165 2.8451L2.85512 1.00527C3.13944 0.720759 3.59435 0.720759 3.87868 1.00527L5.03492 2.16228Z" fill="black"/>
</svg>
