<svg width="18" height="18" viewBox="0 0 18 18" fill="none" xmlns="http://www.w3.org/2000/svg">
<path fill-rule="evenodd" clip-rule="evenodd" d="M9 0C13.9627 0 18 4.03725 18 9C18 11.4998 16.974 13.7633 15.3225 15.3953C15.2835 15.468 15.2287 15.5302 15.15 15.5647L15.123 15.5767C13.6643 16.9357 11.76 17.8147 9.6525 17.967C9.4455 17.9865 9.237 17.9993 9.0255 17.9993H9.01725C9.01425 17.9993 9.01143 17.9994 9.00862 17.9996L9.00398 17.9999L9 18C8.96758 18 8.93585 17.9977 8.90405 17.9954H8.90402H8.904C8.87843 17.9935 8.85281 17.9917 8.82675 17.991C8.6955 17.9872 8.565 17.9827 8.436 17.9715C3.7365 17.6783 0 13.7723 0 9C0 4.03725 4.03725 0 9 0ZM9 0.75C4.45125 0.75 0.75 4.45125 0.75 9C0.75 11.253 1.65975 13.296 3.129 14.787C3.14932 14.779 3.16936 14.7707 3.18934 14.7624L3.18935 14.7624C3.22542 14.7474 3.26134 14.7325 3.2985 14.7195L4.82325 14.1892C5.00325 14.127 5.16675 14.0317 5.319 13.9185C5.83875 14.535 6.45975 15.018 7.14975 15.3293C7.42275 16.1152 7.9695 17.25 9 17.25C10.035 17.25 10.5743 16.1152 10.842 15.3263C11.541 15.009 12.1687 14.5178 12.6915 13.89C12.8535 14.0168 13.0312 14.1203 13.2262 14.1885L14.751 14.7188C14.7782 14.7281 14.8042 14.739 14.8304 14.75C14.8483 14.7575 14.8662 14.765 14.8845 14.772C16.3455 13.2833 17.25 11.2463 17.25 9C17.25 4.45125 13.5487 0.75 9 0.75ZM10.9845 11.7345C10.734 11.9858 10.494 11.9175 9.9015 11.583L9.90011 11.5822C9.59612 11.4115 9.30853 11.25 9 11.25C8.691 11.25 8.403 11.412 8.09775 11.5837C7.50525 11.9183 7.266 11.9865 7.01475 11.7353C6.8685 11.589 6.63075 11.589 6.4845 11.7353C6.33825 11.8815 6.33825 12.1193 6.4845 12.2655C6.7605 12.5415 7.04775 12.6397 7.3275 12.6397C7.75211 12.6397 8.15578 12.4124 8.4646 12.2385L8.466 12.2378C8.65425 12.1313 8.8875 12 9 12C9.11211 12 9.34412 12.1303 9.53202 12.2359L9.534 12.237L9.5354 12.2378C9.84422 12.4117 10.2479 12.639 10.6725 12.639C10.9515 12.639 11.2395 12.5407 11.5155 12.2647C11.6617 12.1185 11.6617 11.8807 11.5155 11.7345C11.3693 11.5883 11.1315 11.5883 10.9845 11.7345ZM4.86825 12C4.227 12 3.74325 11.1938 3.74325 10.125C3.74325 9.2565 4.06275 8.56125 4.52625 8.331C4.53021 8.28832 4.53598 8.24693 4.54173 8.20561L4.54174 8.20557L4.54174 8.20556L4.54175 8.20552C4.5458 8.17645 4.54984 8.14742 4.55325 8.118C4.2825 7.938 3.75 7.491 3.75 6.75C3.75 6.00375 5.7675 4.34925 7.605 3.58725C9.80925 2.6745 11.6798 2.89875 13.0155 4.2345C14.0002 5.21925 13.5098 7.13925 13.488 7.22025C13.4618 7.31775 13.398 7.3965 13.3162 7.446C13.3807 7.7325 13.4332 8.0265 13.4602 8.33475C13.9275 8.56875 14.2432 9.261 14.2432 10.125C14.2432 11.1938 13.7595 12 13.1182 12C13.077 12 13.0305 11.9963 12.9795 11.9865C12.4125 13.3335 11.4135 14.3393 10.2308 14.7615C9.98175 15.5948 9.57975 16.5 9 16.5C8.421 16.5 8.013 15.5947 7.75725 14.7622C6.5745 14.34 5.574 13.3342 5.007 11.9865C4.956 11.9963 4.9095 12 4.86825 12ZM11.8507 9.11025L12.7095 8.463C12.6832 8.11725 12.6277 7.788 12.5497 7.4745C11.6917 7.44225 9.99975 7.3995 8.65275 7.4985C7.599 7.57575 5.997 7.96875 5.31 8.14725C5.2965 8.25 5.2845 8.35425 5.27625 8.46075L6.14775 9.11175C6.3885 8.604 6.9015 8.25 7.5 8.25C8.05275 8.25 8.53125 8.55375 8.7915 9H9.2085C9.46875 8.55375 9.94725 8.25 10.5 8.25C11.0977 8.25 11.61 8.60325 11.8507 9.11025ZM10.5 9C10.9132 9 11.25 9.33675 11.25 9.75C11.25 10.1632 10.9132 10.5 10.5 10.5C10.0868 10.5 9.75 10.1632 9.75 9.75C9.75 9.33675 10.0868 9 10.5 9ZM7.5 10.5C7.91325 10.5 8.25 10.1632 8.25 9.75C8.25 9.33675 7.91325 9 7.5 9C7.08675 9 6.75 9.33675 6.75 9.75C6.75 10.1632 7.08675 10.5 7.5 10.5ZM13.122 11.25C13.122 11.25 13.095 11.2425 13.0463 11.193C12.9555 11.1 12.8228 11.0602 12.6953 11.0903C12.5685 11.1195 12.4657 11.2118 12.4237 11.3355C11.9745 12.6593 11.076 13.653 10.002 14.046C9.68025 13.7708 9.29475 13.5007 9.0015 13.4993L9.00057 13.4999L9 13.5C8.70225 13.5 8.3115 13.7708 7.98525 14.0475C6.9105 13.6545 6.01125 12.6607 5.56125 11.3363C5.51925 11.2133 5.4165 11.1202 5.289 11.091C5.1645 11.0625 5.0295 11.1015 4.938 11.1945C4.89921 11.2339 4.87443 11.2464 4.86871 11.2493C4.86769 11.2498 4.86727 11.25 4.8675 11.25C4.77375 11.2492 4.4925 10.8503 4.4925 10.125C4.4925 9.522 4.68225 9.1605 4.80975 9.05025L6.02025 9.954C6.12075 10.6838 6.7425 11.25 7.5 11.25C8.32725 11.25 9 10.5773 9 9.75C9 10.5773 9.67275 11.25 10.5 11.25C11.2583 11.25 11.8792 10.683 11.9797 9.9525L13.1813 9.04725C13.3005 9.153 13.4932 9.51525 13.4932 10.125C13.4932 10.851 13.2113 11.25 13.122 11.25Z" fill="black"/>
</svg>
