<svg width="18" height="18" viewBox="0 0 18 18" fill="none" xmlns="http://www.w3.org/2000/svg">
<path fill-rule="evenodd" clip-rule="evenodd" d="M2 18V0H16L15.9995 14.3239H13.9996C13.1034 14.3255 12.3761 15.063 12.3746 15.9718V18H2ZM5.92961 10.098L7.5623 7.60994C7.67705 7.43501 7.6303 7.19899 7.45856 7.08313C7.28631 6.96676 7.05332 7.01417 6.93882 7.18885L5.56187 9.28648L4.73415 8.43085C4.58916 8.28101 4.35192 8.27848 4.20392 8.42577C4.05618 8.57282 4.05368 8.81341 4.19892 8.96349H4.19867L5.34988 10.1538C5.42888 10.2352 5.54112 10.2765 5.65287 10.2658C5.76512 10.2552 5.86736 10.1928 5.92961 10.098ZM7.5623 3.53611L5.92961 6.02417C5.86736 6.11899 5.76512 6.18135 5.65287 6.192C5.54112 6.20265 5.42888 6.16132 5.34988 6.07994L4.19867 4.88966H4.19892C4.05368 4.73958 4.05618 4.49899 4.20392 4.35194C4.35192 4.20465 4.58916 4.20718 4.73415 4.35701L5.56187 5.21265L6.93882 3.11501C7.05332 2.94034 7.28631 2.89293 7.45856 3.0093C7.6303 3.12515 7.67705 3.36144 7.5623 3.53611ZM9.25024 9.27076H12.5001C12.7071 9.27076 12.8751 9.1004 12.8751 8.89048C12.8751 8.68056 12.7071 8.5102 12.5001 8.5102H9.25024C9.04325 8.5102 8.87525 8.68056 8.87525 8.89048C8.87525 9.1004 9.04325 9.27076 9.25024 9.27076ZM12.5001 5.19718H9.25024C9.04325 5.19718 8.87525 5.02682 8.87525 4.8169C8.87525 4.60699 9.04325 4.43662 9.25024 4.43662H12.5001C12.7071 4.43662 12.8751 4.60699 12.8751 4.8169C12.8751 5.02682 12.7071 5.19718 12.5001 5.19718ZM15.3745 15.0845H13.9996C13.7591 15.0845 13.5421 15.1836 13.3818 15.3454C13.2223 15.5079 13.1246 15.7282 13.1246 15.9718V17.3662L15.3745 15.0845Z" fill="black"/>
</svg>
