<svg width="18" height="18" viewBox="0 0 18 18" fill="none" xmlns="http://www.w3.org/2000/svg">
<path fill-rule="evenodd" clip-rule="evenodd" d="M8.20433 7.84973C8.20739 7.84974 8.21041 7.84974 8.21338 7.84974L13.9308 7.83157C14.0414 7.8346 14.1353 7.92983 14.1353 8.04018V13.8687C14.1353 13.9768 14.0395 13.9767 13.932 13.9765C13.9277 13.9765 13.9233 13.9765 13.9189 13.9765H4.085C4.08064 13.9765 4.07628 13.9765 4.07194 13.9765C3.96417 13.9767 3.86471 13.9768 3.86471 13.8687V12.1235H2.32941V15.6706H8.05926C8.17186 15.6706 8.20588 15.7944 8.20588 15.9069V17.7411C8.20588 17.8537 8.17186 18 8.05926 18H0.212485C0.0999846 18 0 17.8537 0 17.7411V0.26424C0 0.151586 0.0999846 0 0.212485 0H6.02123C6.13373 0 6.19412 0.151586 6.19412 0.26424V2.20034C6.19412 2.31284 6.13373 2.48824 6.02123 2.48824H2.32941V9.95294H6.02123C6.03592 9.95294 6.04972 9.95263 6.06261 9.95234C6.14847 9.9504 6.19412 9.94937 6.19412 10.0471V11.6471H11.7099C11.7102 11.4945 11.71 11.3612 11.7099 11.2096L11.7099 11.1908L11.7099 11.1874C11.7094 10.848 11.709 10.5208 11.713 10.1703C11.4277 10.1716 11.1436 10.1749 10.8599 10.1781C10.4548 10.1828 10.0506 10.1875 9.64537 10.1862C9.41919 10.1854 9.19296 10.1937 8.96673 10.2019C8.75037 10.2098 8.534 10.2176 8.31766 10.2176H8.05926C7.94676 10.2176 7.78235 10.0579 7.78235 9.94529V9.56907C7.78235 9.3433 7.78915 9.12033 7.79569 8.90579C7.803 8.66587 7.81 8.43648 7.80681 8.22548C7.80562 8.15496 7.84036 8.03005 7.9359 7.93301C8.01816 7.84941 8.12678 7.8496 8.20433 7.84973ZM15.5118 2.48824H15.3559H10.1846C10.1891 2.66496 10.18 2.92491 10.1701 3.21002C10.1622 3.43736 10.1538 3.6807 10.1512 3.91059L10.4446 3.85297C11.0241 3.85088 11.6146 3.85469 12.207 3.85852C12.6856 3.86161 13.1655 3.86471 13.6419 3.86471H13.9189C14.0316 3.86471 14.1353 3.92209 14.1353 4.03472V6.07272C14.1353 6.18538 14.0316 6.19412 13.9189 6.19412H6.19412V8.00901C6.19412 8.0832 6.16791 8.07616 6.11787 8.06271C6.09195 8.05575 6.05962 8.04706 6.02123 8.04706H4.085C4.04951 8.04706 4.01451 8.05446 3.98322 8.06108C3.9152 8.07547 3.86471 8.08615 3.86471 8.00901V4.03472C3.86471 3.92209 3.97235 3.86471 4.085 3.86471H5.27064C5.59531 3.86471 5.92687 3.86214 6.26278 3.85954C6.77208 3.85559 7.29136 3.85157 7.81172 3.8563C7.81483 3.8563 7.81556 3.85212 7.81628 3.84798C7.817 3.84388 7.8177 3.83981 7.82071 3.83989C7.82029 3.60146 7.81778 3.35717 7.81525 3.11064C7.81154 2.74907 7.80777 2.38266 7.81048 2.02278C7.81275 1.7384 7.80451 1.44882 7.79638 1.16274C7.78933 0.91484 7.78235 0.669567 7.78235 0.432577V0.26424C7.78235 0.151586 7.94676 0 8.05926 0H17.6894C17.8021 0 18 0.151586 18 0.26424V17.7411C18 17.8537 17.8021 18 17.6894 18H10.0466C9.94797 18 9.95024 17.8879 9.95235 17.7844C9.95265 17.7697 9.95294 17.7551 9.95294 17.7411V15.9069C9.95294 15.8926 9.95263 15.8781 9.95233 15.8637C9.95023 15.7649 9.94823 15.6706 10.0466 15.6706H15.5118V2.48824Z" fill="black"/>
</svg>
