<svg width="18" height="18" viewBox="0 0 18 18" fill="none" xmlns="http://www.w3.org/2000/svg">
<path fill-rule="evenodd" clip-rule="evenodd" d="M6.45517 14.1838C2.66897 9.79507 5.33793 2.60781 11.1724 2.16258C6.33103 -1.27204 -0.124138 3.43466 1.42759 9.34984L0 13.6749L3.10345 12.3392C3.97241 13.2933 5.15172 13.9293 6.45517 14.1838ZM18 9.34984C18 5.72441 15.1448 2.73501 11.6069 2.73501C8.13103 2.73501 5.27586 5.72441 5.27586 9.34984C5.27586 13.4841 8.87586 16.6643 12.8483 15.8375L16.6345 18L15.8276 14.311C17.1931 13.1025 18 11.3216 18 9.34984ZM8.50345 11.894C9.9931 13.3569 12.2897 12.1484 13.3448 10.6855C14.4621 9.28624 15.0207 6.74207 13.3448 5.5972L11.731 7.69613L12.5379 8.33218L10.9241 10.4947L10.1172 9.79507L8.50345 11.894Z" fill="black"/>
</svg>
