<svg width="18" height="18" viewBox="0 0 18 18" fill="none" xmlns="http://www.w3.org/2000/svg">
<path fill-rule="evenodd" clip-rule="evenodd" d="M4.06981 2.73756C4.06981 4.24351 5.27273 5.47561 6.74303 5.47561H12.0678C13.5376 5.47561 14.7405 4.24351 14.7405 2.73756C14.7405 1.2321 13.5376 0 12.0678 0H6.74303C5.27273 0 4.06981 1.2321 4.06981 2.73756ZM9.39365 11.7434H6.67226C5.20244 11.7434 4 10.5113 4 9.00632C4 8.25235 4.30061 7.56698 4.78525 7.07058C5.26989 6.57419 5.93856 6.26629 6.67226 6.26629H9.39365V11.7434ZM12.3268 6.32234C10.8507 6.32234 9.65356 7.54803 9.65356 9.0604C9.65356 10.5723 10.8507 11.798 12.3268 11.798C13.8029 11.798 15 10.5723 15 9.0604C15 7.54803 13.8029 6.32234 12.3268 6.32234ZM6.62008 12.5244H9.38917V15.1539C9.38973 15.168 9.39065 15.182 9.39157 15.1959C9.39302 15.218 9.39447 15.2401 9.39447 15.2624C9.39447 15.2849 9.39301 15.3071 9.39155 15.3292C9.39064 15.3429 9.38973 15.3567 9.38917 15.3705V15.4016H9.38773C9.31643 16.8483 8.15156 18 6.72125 18C5.24517 18 4.04851 16.7743 4.04851 15.2624C4.04851 13.7851 5.19122 12.5846 6.62008 12.5298V12.5244Z" fill="black"/>
</svg>
