<svg width="18" height="18" viewBox="0 0 18 18" fill="none" xmlns="http://www.w3.org/2000/svg">
<path fill-rule="evenodd" clip-rule="evenodd" d="M1.02571 0H16.9742L17 5.37138H16.2369C15.9867 3.44983 15.2711 2.4899 14.0898 1.81159C13.4255 1.43768 12.4341 1.2335 11.1148 1.19858V14.8897C11.1148 15.8703 11.2848 16.521 11.6257 16.8421C11.9662 17.1632 12.6753 17.3237 13.7534 17.3237V18H4.3112V17.3237C5.34604 17.3237 6.03349 17.1612 6.37422 16.8355C6.71485 16.5102 6.88511 15.8616 6.88511 14.8897V1.19858C5.59172 1.23361 4.60007 1.43768 3.91014 1.81159C2.64258 2.50724 1.92682 3.46717 1.76299 5.37138H1L1.02571 0Z" fill="black"/>
</svg>
