<svg width="18" height="18" viewBox="0 0 18 18" fill="none" xmlns="http://www.w3.org/2000/svg">
<path fill-rule="evenodd" clip-rule="evenodd" d="M16.4858 7.1886C16.4858 6.62939 16.4669 5.99561 16.4101 5.26864C16.1073 1.63377 12.9085 1 8.99054 1C5.07256 1 1.87382 1.63377 1.57098 5.26864C1.5142 5.99561 1.49527 6.62939 1.49527 7.1886C0.624606 7.58004 0 8.49342 0 9.55592C0 10.8421 0.908517 11.9232 2.08202 12.1096V13.6754C2.08202 16.0614 4.05047 18 6.49211 18H11.5079C13.9306 18 15.918 16.0614 15.918 13.6754V12.1096C17.0915 11.9232 18 10.8607 18 9.55592C17.9811 8.49342 17.3565 7.58004 16.4858 7.1886ZM15.5394 10.7862C15.4448 10.7862 15.4069 10.7862 15.388 10.7675C15.1798 10.7116 14.9716 10.7675 14.8013 10.898C14.6309 11.0285 14.5363 11.2149 14.5363 11.4386V13.6754C14.5363 15.3158 13.1735 16.6579 11.489 16.6579H6.49211C4.80757 16.6579 3.44479 15.3158 3.44479 13.6754V11.4386C3.44479 11.2336 3.35016 11.0285 3.17981 10.898C3.00946 10.7675 2.80126 10.7303 2.59306 10.7675C2.58675 10.7675 2.57624 10.7696 2.56222 10.7724C2.53417 10.7779 2.49211 10.7862 2.44164 10.7862C1.85489 10.7862 1.36278 10.227 1.36278 9.55592C1.36278 9.03399 1.66562 8.58662 2.08202 8.41886V8.54934C2.08202 8.92215 2.38486 9.22039 2.76341 9.22039C3.14196 9.22039 3.44479 8.92215 3.44479 8.54934V7.1886C3.44479 6.64803 3.59621 6.14474 3.8612 5.71601C5.09148 6.18202 6.92744 6.4989 8.99054 6.4989C11.0536 6.4989 12.8896 6.20066 14.1199 5.71601C14.3659 6.14474 14.5363 6.64803 14.5363 7.1886V8.54934C14.5363 8.92215 14.8391 9.22039 15.2177 9.22039C15.5962 9.22039 15.8991 8.92215 15.8991 8.54934V8.41886C16.3155 8.58662 16.6183 9.03399 16.6183 9.55592C16.6183 10.2456 16.1262 10.7862 15.5394 10.7862ZM7.9306 9.79825L6.4164 10.8421C6.30284 10.9167 6.18927 10.9539 6.07571 10.9353C5.88644 10.9353 5.69716 10.8607 5.5836 10.693C5.39432 10.432 5.47003 10.0592 5.73502 9.87281L6.5489 9.3136L5.73502 8.75439C5.4511 8.56798 5.39432 8.19518 5.5836 7.93421C5.77287 7.65461 6.15142 7.59868 6.4164 7.78509L7.9306 8.82895C8.08202 8.94079 8.17666 9.12719 8.17666 9.3136C8.17666 9.5 8.08202 9.6864 7.9306 9.79825ZM12.4543 7.91557C12.265 7.65461 11.8864 7.58004 11.6215 7.76645L10.1073 8.81031C9.95584 8.92215 9.8612 9.10855 9.8612 9.29496C9.8612 9.48136 9.95584 9.66776 10.1073 9.77961L11.6215 10.8235C11.735 10.898 11.8486 10.9353 11.9621 10.9353C12.1514 10.9353 12.3407 10.8421 12.4543 10.693C12.6435 10.432 12.5868 10.0592 12.3028 9.87281L11.489 9.3136L12.3028 8.75439C12.5868 8.54934 12.6435 8.17654 12.4543 7.91557ZM10.7697 12.7434C10.9779 12.4265 11.3943 12.3333 11.7161 12.5384C12.0379 12.7434 12.1325 13.1535 11.8864 13.4704C11.3186 14.3465 10.183 14.9057 8.99054 14.9057C7.79811 14.9057 6.68139 14.3651 6.09464 13.4704C5.88644 13.1535 5.98107 12.7434 6.30284 12.5384C6.62461 12.3333 7.04101 12.4265 7.24921 12.7434C7.58991 13.2467 8.25237 13.5636 9.00946 13.5636C9.76656 13.5636 10.429 13.2467 10.7697 12.7434Z" fill="black"/>
</svg>
