<svg width="18" height="18" viewBox="0 0 18 18" fill="none" xmlns="http://www.w3.org/2000/svg">
<path fill-rule="evenodd" clip-rule="evenodd" d="M9.0004 1.56153C13.1018 1.56153 16.4386 4.89878 16.4386 9C16.4386 13.1012 13.1016 16.4385 9.0004 16.4385C4.8992 16.4385 1.5616 13.1012 1.5616 9C1.5616 4.89858 4.899 1.56153 9.0004 1.56153ZM9.0004 0C4.0294 0 0 4.03062 0 9C0 13.9694 4.0294 18 9.0004 18C13.9708 18 18 13.9694 18 9C18 4.03062 13.9708 0 9.0004 0ZM7.2238 7.10988C7.2238 7.77105 6.688 8.30663 6.027 8.30663C5.366 8.30663 4.8302 7.77085 4.8302 7.10988C4.8302 6.44891 5.3662 5.91334 6.027 5.91334C6.688 5.91314 7.2238 6.44891 7.2238 7.10988ZM11.9738 5.92434C11.3128 5.92434 10.7764 6.46011 10.7764 7.12108C10.7764 7.78205 11.313 8.31783 11.9738 8.31783C12.635 8.31783 13.1706 7.78185 13.1706 7.12108C13.1708 6.46011 12.635 5.92434 11.9738 5.92434ZM12.7702 12.5928C13.0838 12.2977 13.0994 11.8041 12.8036 11.4903C12.5084 11.1753 12.0142 11.1605 11.7004 11.4555C10.9656 12.1475 10.0068 12.5268 9.0004 12.5268C7.9934 12.5268 7.034 12.1475 6.3004 11.4555C5.9854 11.1603 5.4924 11.1753 5.1966 11.4903C4.9008 11.8039 4.9158 12.2977 5.2306 12.5928C6.255 13.5576 7.5944 14.0886 9.0004 14.0886C10.4064 14.0886 11.7444 13.5576 12.7702 12.5928Z" fill="black"/>
</svg>
