<svg width="18" height="18" viewBox="0 0 18 18" fill="none" xmlns="http://www.w3.org/2000/svg">
<path fill-rule="evenodd" clip-rule="evenodd" d="M17.2112 1.769C17.2112 1.769 17.4462 1.80342 17.7336 1.84523C18.0208 1.88705 18.0862 2.08712 17.8788 2.29C17.671 2.49287 17.5004 2.65893 17.5004 2.65893L16.8716 3.27196C16.8014 3.34038 16.7578 3.47563 16.7744 3.57207L16.9228 4.43799C16.9228 4.43799 16.9626 4.67248 17.0118 4.95898C17.0608 5.24509 16.8908 5.36893 16.6336 5.23368L16.166 4.98759L15.3886 4.57864C15.302 4.53322 15.1602 4.53322 15.0736 4.57864L14.2961 4.98739C14.2961 4.98739 14.0855 5.09843 13.8285 5.23348C13.5713 5.36853 13.4011 5.24489 13.4501 4.95878C13.4993 4.67228 13.5393 4.43779 13.5393 4.43779L13.6877 3.57187C13.7041 3.47543 13.6605 3.34018 13.5905 3.27176L12.9615 2.65873C12.9615 2.65873 12.7909 2.49267 12.5831 2.2898C12.3751 2.08692 12.4399 1.88685 12.7275 1.84503C13.0151 1.80322 13.2501 1.7688 13.2501 1.7688L14.1193 1.64256C14.2161 1.62855 14.3309 1.54532 14.3741 1.45729L14.7629 0.669397C14.7629 0.669397 14.8677 0.456119 14.9964 0.195822C15.1252 -0.0652741 15.3354 -0.0652741 15.464 0.195822C15.5928 0.456119 15.6978 0.669397 15.6978 0.669397L16.0866 1.45729C16.1294 1.54512 16.2444 1.62835 16.3412 1.64256L17.2112 1.769ZM10.3634 6.14882C10.7495 5.76228 11.3757 5.76228 11.7621 6.14882L11.8467 6.23325C12.2331 6.6198 12.2331 7.24643 11.8467 7.63297L1.77336 17.7101C1.38717 18.0966 0.760982 18.0966 0.374591 17.7101L0.289793 17.6253C-0.0965977 17.2391 -0.0965977 16.6125 0.289793 16.2259L10.3634 6.14882ZM4.4459 2.46766L4.98468 2.99366C5.04488 3.05228 5.08248 3.16792 5.06828 3.25035L4.94108 3.99283L4.86429 4.43899C4.82229 4.68448 4.96808 4.79032 5.18868 4.67468C5.40887 4.55863 5.58947 4.464 5.58947 4.464L6.25545 4.11347C6.33005 4.07446 6.45165 4.07446 6.52605 4.11347L7.19223 4.464C7.19223 4.464 7.37263 4.55863 7.59282 4.67468C7.81322 4.79032 7.95921 4.68448 7.91721 4.43899L7.84062 3.99283L7.71322 3.25035C7.69902 3.16792 7.73642 3.05228 7.79662 2.99366L8.33561 2.46766C8.33561 2.46766 8.4812 2.32581 8.6596 2.15154C8.83799 1.97768 8.78219 1.80622 8.536 1.7702L8.08821 1.70538L7.34343 1.59714C7.26043 1.58494 7.16203 1.51351 7.12483 1.43848L6.79164 0.762832L6.59145 0.357282C6.48105 0.133799 6.30085 0.133799 6.19046 0.357282L5.99026 0.762832L5.65707 1.43848C5.61987 1.51351 5.52147 1.58494 5.43847 1.59714L4.69329 1.70538L4.2453 1.7702C3.99911 1.80602 3.94351 1.97768 4.1217 2.15154C4.2999 2.32581 4.4459 2.46766 4.4459 2.46766ZM17.126 10.9812L17.5738 11.0464C17.8202 11.0822 17.8758 11.2539 17.6972 11.4274C17.5188 11.6012 17.3732 11.7435 17.3732 11.7435L16.8342 12.2691C16.774 12.3277 16.7368 12.4433 16.7508 12.5262L16.8782 13.2683C16.8782 13.2683 16.9126 13.4693 16.9548 13.7146C16.997 13.9603 16.8508 14.0659 16.6306 13.9505C16.41 13.8345 16.2298 13.7392 16.2298 13.7392L15.5638 13.3887C15.4892 13.3503 15.3676 13.3503 15.293 13.3887L14.6271 13.7392C14.6271 13.7392 14.4467 13.8345 14.2263 13.9505C14.0057 14.0659 13.8599 13.9603 13.9019 13.7146C13.9443 13.4693 13.9787 13.2683 13.9787 13.2683L14.1061 12.5262C14.1201 12.4433 14.0829 12.3277 14.0225 12.2691L13.4837 11.7435L13.1595 11.4274C12.9813 11.2537 13.0371 11.0818 13.2831 11.0462L13.7311 10.981L14.4759 10.8734C14.5591 10.8606 14.6575 10.7893 14.6947 10.7143L15.0278 10.0391C15.0278 10.0391 15.1178 9.85619 15.2282 9.63311C15.3384 9.40963 15.5188 9.40963 15.629 9.63311C15.7394 9.85619 15.8294 10.0391 15.8294 10.0391L16.1626 10.7143C16.1996 10.7893 16.2982 10.8608 16.3812 10.8734L17.126 10.9812Z" fill="black"/>
</svg>
