<svg width="18" height="18" viewBox="0 0 18 18" fill="none" xmlns="http://www.w3.org/2000/svg">
<path fill-rule="evenodd" clip-rule="evenodd" d="M1.8108 4.02715C3.37347 1.60419 6.11125 0 9.21246 0C11.396 0 13.3974 0.795906 14.9345 2.1122C15.2061 2.31091 15.2559 2.74903 15.0359 3.00323C14.8159 3.25748 14.3736 3.27293 14.1363 3.03465C12.8125 1.90112 11.0974 1.22152 9.21246 1.22152C6.53535 1.22152 4.1902 2.60357 2.84539 4.68875C2.67255 4.96077 2.26586 5.05049 1.99389 4.87656C1.72195 4.70266 1.63451 4.29694 1.8108 4.02715ZM8.59026 2.93287C8.59026 2.61004 8.88844 2.31742 9.21246 2.32212V2.32214C12.7466 2.32214 15.6274 5.17773 15.6626 8.69048V8.69682L15.6626 8.73483L15.6626 8.7541V8.79865C15.659 10.3136 15.4703 11.7815 15.1134 13.1884C15.0337 13.4986 14.6786 13.7093 14.3668 13.6312C14.055 13.5531 13.8421 13.2003 13.9191 12.8894C14.25 11.5852 14.4311 10.2244 14.4364 8.81771C14.4344 8.79654 14.4344 8.77529 14.4364 8.7541C14.4364 5.87176 12.1057 3.5436 9.21246 3.5436C8.88844 3.54837 8.59026 3.25568 8.59026 2.93287ZM7.01558 2.74839C6.98568 2.74833 6.9558 2.75044 6.9262 2.75473C6.8713 2.7623 6.8174 2.77734 6.76653 2.79926C4.43367 3.75058 2.78481 6.03118 2.75597 8.68408C2.75392 8.7074 2.75392 8.73076 2.75597 8.75407C2.75392 8.77527 2.75392 8.79652 2.75597 8.81769C2.73879 10.2712 2.12918 11.5732 1.15305 12.5076C0.899022 12.7231 0.877545 13.1573 1.10907 13.3966C1.34057 13.6359 1.77687 13.6305 2.0024 13.3855C3.21347 12.2262 3.96996 10.5985 3.98213 8.79858V8.75403V8.69676C4.00586 6.53888 5.34608 4.70098 7.23273 3.93162C7.50009 3.8326 7.67348 3.52881 7.62218 3.24928C7.5709 2.96975 7.30082 2.74671 7.01558 2.74833V2.74839ZM15.5072 4.0006C15.6118 3.80528 15.8299 3.67519 16.0521 3.67723V3.67725C16.258 3.67799 16.4601 3.78983 16.5694 3.96357C17.4627 5.32263 17.9873 6.94989 17.9999 8.69048V8.69682L18 8.73482L17.9999 8.7541V8.79865V8.80499C17.9966 10.1723 17.859 11.5078 17.5976 12.8003C17.5352 13.1161 17.1891 13.3465 16.8723 13.283C16.5555 13.2196 16.3257 12.8739 16.3906 12.5586C16.6353 11.3489 16.7695 10.0993 16.7738 8.81771C16.7717 8.79654 16.7717 8.77529 16.7738 8.7541V8.71591C16.7661 7.20705 16.313 5.80565 15.5413 4.63154C15.4163 4.44849 15.4027 4.19592 15.5072 4.0006ZM9.21246 4.6506C6.96782 4.6506 5.12794 6.46216 5.09333 8.69046C5.09128 8.71165 5.09128 8.73292 5.09333 8.7541C5.09128 8.77529 5.09128 8.79654 5.09333 8.81771C5.0876 9.52971 4.98369 10.2157 4.79318 10.8663C4.68342 11.178 4.88089 11.5615 5.1991 11.6545C5.51733 11.7476 5.89146 11.5312 5.96825 11.2098C6.19255 10.4439 6.31528 9.63411 6.3195 8.79865V8.7541V8.69682C6.35046 7.12664 7.62863 5.87212 9.21246 5.87212C10.2365 5.87212 11.1246 6.40104 11.6392 7.19539C11.8142 7.46639 12.2215 7.55371 12.4929 7.37846C12.7644 7.2032 12.8507 6.79722 12.6738 6.52738C11.9411 5.39652 10.6597 4.6506 9.21246 4.6506ZM0.789018 6.24106C0.859341 5.99187 1.104 5.80233 1.36377 5.79579V5.79577C1.75271 5.78575 2.08168 6.22153 1.96409 6.59098C1.76374 7.25802 1.65645 7.96442 1.65114 8.6968V8.75407V8.79862C1.64373 9.47569 1.46629 10.1134 1.16579 10.6754C1.03048 10.9824 0.61317 11.1264 0.316211 10.9689C0.0192318 10.8113 -0.093575 10.3859 0.0865068 10.1028C0.292627 9.71734 0.414966 9.28436 0.424988 8.81769C0.422943 8.79652 0.422943 8.77527 0.424988 8.75407V8.71589V8.70955C0.429202 7.85323 0.553893 7.02394 0.789018 6.24106ZM9.21246 6.9791C8.23621 6.9791 7.43069 7.78153 7.43069 8.7541C7.42639 9.07656 7.72006 9.37295 8.04379 9.37295C8.36753 9.37295 8.66113 9.07656 8.65688 8.7541C8.65688 8.44168 8.89889 8.20059 9.21246 8.20059C9.52605 8.20059 9.76807 8.44168 9.76807 8.7541C9.76602 8.77529 9.76602 8.79654 9.76807 8.81771C9.7605 10.303 9.48357 11.7228 8.98896 13.0357C8.87826 13.3352 9.0503 13.708 9.35053 13.8193C9.65078 13.9307 10.0256 13.7606 10.1385 13.4619C10.6858 12.0091 10.9888 10.4385 10.9942 8.79865V8.7541V8.69682V8.68394C10.9561 7.74375 10.1648 6.97894 9.21246 6.97894V6.9791ZM12.099 8.7541C12.0923 8.43219 12.3826 8.13388 12.7057 8.13061C13.0332 8.12719 13.332 8.42796 13.3252 8.7541C13.3252 12.0986 12.2782 15.1997 10.4897 17.7499C10.3064 18.0143 9.88163 18.0745 9.63268 17.9044C9.36663 17.7226 9.29543 17.3132 9.4807 17.0501C11.1307 14.6974 12.099 11.8443 12.099 8.7541ZM7.87774 9.8038C7.59739 9.81832 7.34353 10.0488 7.30297 10.3255C6.95704 12.473 5.91775 14.3874 4.41641 15.835C4.16258 16.0505 4.14125 16.4844 4.37269 16.7237C4.60412 16.9629 5.04019 16.9576 5.26578 16.713C6.95191 15.0872 8.12747 12.9371 8.51635 10.5228C8.58238 10.1606 8.24668 9.78269 7.87774 9.8039V9.8038ZM4.02045 12.6285C4.11945 12.4564 4.30724 12.3383 4.50581 12.3231H4.50583C4.73055 12.3072 4.95964 12.4261 5.07537 12.6187C5.19106 12.8112 5.18803 13.0685 5.0678 13.2584C4.60579 14.0239 4.0293 14.711 3.36265 15.3006C3.1227 15.517 2.70536 15.4937 2.49122 15.2518C2.27711 15.01 2.30601 14.5945 2.55161 14.3844C3.12572 13.8767 3.62295 13.2872 4.02045 12.6285ZM13.9574 14.1109C13.72 14.1272 13.4998 14.2943 13.421 14.5181C13.2101 15.0947 12.9698 15.6587 12.6994 16.204C12.5413 16.492 12.6703 16.8991 12.9657 17.0446C13.2611 17.19 13.6641 17.0447 13.7978 16.7447C14.088 16.1597 14.3442 15.5567 14.5705 14.9379C14.6433 14.7476 14.6123 14.5213 14.4908 14.3575C14.3694 14.1937 14.1614 14.0975 13.9574 14.1109ZM8.03737 15.0015C8.13639 14.8294 8.32418 14.7113 8.52274 14.6962H8.5237C8.74755 14.6794 8.97636 14.7964 9.09319 14.9873C9.20911 15.1783 9.20866 15.4345 9.09115 15.625C8.66393 16.336 8.16981 17.0053 7.62229 17.6227C7.4114 17.8674 6.99431 17.8963 6.75147 17.6829C6.50864 17.4696 6.48526 17.0537 6.70267 16.8147C7.20057 16.2532 7.64916 15.6477 8.03737 15.0015Z" fill="black"/>
</svg>
