<svg width="18" height="18" viewBox="0 0 18 18" fill="none" xmlns="http://www.w3.org/2000/svg">
<path fill-rule="evenodd" clip-rule="evenodd" d="M1.73864 18H16.2614C17.2201 18 18 17.2201 18 16.2614V1.73864C18 0.779932 17.2201 0 16.2614 0H1.73864C0.779932 0 0 0.779932 0 1.73864V16.2614C0 17.2201 0.779932 18 1.73864 18ZM1.02273 1.73864C1.02273 1.34397 1.34397 1.02273 1.73864 1.02273H16.2614C16.656 1.02273 16.9773 1.34397 16.9773 1.73864V16.2614C16.9773 16.656 16.656 16.9773 16.2614 16.9773H1.73864C1.34397 16.9773 1.02273 16.656 1.02273 16.2614V1.73864ZM5.92916 11.9877L6.63934 9.83659H9.06443L9.79497 11.9877H10.7386L8.40487 5.14882H7.34963L5.01597 11.9877H5.92916ZM8.21219 7.17822L8.8919 9.14666V9.14676H6.822L7.49168 7.16809C7.61218 6.81519 7.70346 6.455 7.79031 6.11231C7.80585 6.05099 7.82125 5.99024 7.83665 5.93018H7.857L7.87612 6.00477C7.97148 6.37695 8.06956 6.7597 8.21219 7.17822ZM12.6768 5.6968C12.6768 6.00126 12.4637 6.24467 12.1086 6.24467C11.7839 6.24467 11.5707 6.00116 11.5707 5.6968C11.5707 5.39243 11.7941 5.13869 12.1288 5.13869C12.4536 5.13869 12.6768 5.3822 12.6768 5.6968ZM11.6825 11.9877V7.07676H12.5754V11.9878H11.6825V11.9877Z" fill="black"/>
</svg>
