<svg width="18" height="18" viewBox="0 0 18 18" fill="none" xmlns="http://www.w3.org/2000/svg">
<path fill-rule="evenodd" clip-rule="evenodd" d="M15.3594 2.64986C12.146 -0.581338 7.02436 -0.89593 3.44007 1.91774C-0.144211 4.73141 -1.05712 9.78316 1.31553 13.6743L3.87826 11.0053C4.20094 10.6691 4.64671 10.479 5.11262 10.479C5.57853 10.479 6.0243 10.6691 6.34698 11.0053L10.8393 15.6905L14.0241 12.3716C14.2382 12.1421 14.5397 12.0144 14.8535 12.0203C15.1672 12.0144 15.4687 12.1421 15.6828 12.3716L16.7886 13.5277C18.8328 9.99699 18.2461 5.5321 15.3594 2.64986ZM10.621 8.5078C9.91515 8.5078 9.27889 8.08229 9.00905 7.42981C8.73921 6.77733 8.88897 6.02647 9.38844 5.52756C9.88791 5.02865 10.6387 4.88002 11.2904 5.15102C11.9422 5.42202 12.3665 6.05923 12.3654 6.76535C12.3654 7.22796 12.1815 7.67158 11.8543 7.99843C11.5271 8.32528 11.0833 8.50853 10.621 8.5078ZM11.7986 17.5547C11.6715 17.5962 11.5388 17.6377 11.4088 17.6708L1.86056 14.4726C1.853 14.4629 1.8455 14.4531 1.83803 14.4432C1.78487 14.3794 1.73504 14.3129 1.68875 14.244C1.67052 14.2232 1.65389 14.201 1.63898 14.1777L4.29017 11.4119C4.50582 11.1839 4.80576 11.0547 5.11953 11.0547C5.4333 11.0547 5.73324 11.1839 5.94889 11.4119L11.8291 17.5464L11.7986 17.5547ZM11.4088 17.6708L1.93688 14.5667C1.97445 14.6122 2.01457 14.6607 2.05919 14.7198C2.14489 14.8332 2.23612 14.9383 2.33565 15.0489C2.43517 15.1595 2.53746 15.2674 2.64251 15.3725C2.75309 15.4748 2.86367 15.5771 2.97425 15.6767C3.08483 15.7763 3.19818 15.8731 3.31153 15.9671C3.65267 16.2477 4.01396 16.5028 4.39246 16.7305C5.7847 17.5649 7.37799 18.0038 9.00094 18L9.29121 17.9778H9.56766L9.79712 17.9613L9.98787 17.9419L10.1565 17.9225L10.2726 17.9087L10.4827 17.8755C10.6762 17.8479 10.8698 17.8091 11.0605 17.7621C11.0956 17.7519 11.1314 17.7432 11.1676 17.7344C11.1999 17.7266 11.2325 17.7187 11.2651 17.7096C11.3137 17.6993 11.3617 17.6864 11.4088 17.6708ZM12.4234 17.3085L11.2485 16.0805L14.4332 12.7671C14.5411 12.6553 14.6898 12.5923 14.8452 12.5929C15.0005 12.5923 15.1493 12.6553 15.2571 12.7671L16.4652 14.0228V14.0255L16.4126 14.1002C16.3931 14.1316 16.3709 14.1612 16.3463 14.1887C16.291 14.2689 16.2357 14.3491 16.1749 14.4266C16.1612 14.4441 16.1462 14.4634 16.1303 14.4838C16.0759 14.5538 16.0115 14.6368 15.9537 14.7032C15.912 14.7511 15.8694 14.8024 15.826 14.8549C15.7917 14.8962 15.7569 14.9383 15.7215 14.9797C15.6413 15.0738 15.5695 15.1485 15.4921 15.2287C15.3732 15.3504 15.2515 15.472 15.1271 15.5882L14.9309 15.7652C14.765 15.9109 14.5936 16.051 14.4167 16.1856C14.3282 16.252 14.2397 16.3156 14.1402 16.3792C14.0924 16.4098 14.049 16.4397 14.0061 16.4693C13.9598 16.5013 13.914 16.5329 13.8637 16.5645C13.8407 16.579 13.8181 16.5932 13.7959 16.6072C13.7247 16.6519 13.6568 16.6945 13.5873 16.7388L13.4242 16.8328L13.203 16.9545L12.9736 17.0707C12.953 17.0803 12.9325 17.0901 12.912 17.1C12.8443 17.1325 12.7756 17.1654 12.6971 17.1951L12.4234 17.3085Z" fill="black"/>
</svg>
