<svg width="18" height="18" viewBox="0 0 18 18" fill="none" xmlns="http://www.w3.org/2000/svg">
<path fill-rule="evenodd" clip-rule="evenodd" d="M4.06 0H13.94C16.18 0 18 1.82 18 4.06V13.94C18 16.18 16.18 18 13.9433 18H4.06C1.82 18 0 16.18 0 13.9433V4.06C0 1.82 1.82 0 4.06 0ZM13.94 17.3333C15.8133 17.3333 17.3333 15.8133 17.3333 13.94V4.06C17.3333 2.18667 15.8133 0.666667 13.9433 0.666667H4.06C2.18667 0.666667 0.666667 2.18667 0.666667 4.06V13.94C0.666667 15.8133 2.18667 17.3333 4.06 17.3333H13.94ZM4.52 4.88L5.4 4.90667V13.3333H6.36V4H4.52V4.88ZM12.3867 6.92C12.0033 6.67 11.5367 6.54667 10.98 6.54667C10.4233 6.54667 9.95 6.63 9.56 6.8C8.80333 7.14667 8.42667 7.78667 8.42667 8.72V11.24C8.42667 12.12 8.77333 12.7367 9.46667 13.0933C9.99 13.36 10.5767 13.4933 11.2267 13.4933C11.8767 13.4933 12.5833 13.44 13.3467 13.3333V4H12.3867V6.92ZM12.3867 12.4933C11.9333 12.5633 11.47 12.6 11 12.6C10.53 12.6 10.1333 12.48 9.81333 12.24C9.52 12.01 9.37333 11.69 9.37333 11.28V8.90667C9.37333 8.49 9.49 8.14333 9.72667 7.87333C9.96333 7.60333 10.3433 7.46667 10.8667 7.46667C11.4167 7.46667 11.9233 7.59 12.3867 7.84V12.4933Z" fill="black"/>
</svg>
