<svg width="18" height="18" viewBox="0 0 18 18" fill="none" xmlns="http://www.w3.org/2000/svg">
<path fill-rule="evenodd" clip-rule="evenodd" d="M17.748 1.07378C17.9053 0.963513 17.9991 0.785437 18 0.595316C17.9972 0.518916 17.9766 0.444163 17.94 0.376757C17.9379 0.348803 17.9275 0.322081 17.91 0.299966C17.8976 0.270518 17.8815 0.242732 17.862 0.217268C17.8352 0.181118 17.8051 0.1475 17.772 0.116849L17.664 0.0518725C17.6242 0.0309998 17.5818 0.0151241 17.538 0.00461652C17.4922 -0.00153884 17.4458 -0.00153884 17.4 0.00461652H0.6C0.554212 -0.00153884 0.507788 -0.00153884 0.462 0.00461652C0.407835 0.0241195 0.357193 0.0520392 0.312 0.0873144L0.204 0.152291C0.170899 0.182941 0.140769 0.21656 0.114 0.25271C0.0945226 0.278174 0.0783947 0.30596 0.066 0.335408C0.0485094 0.357523 0.0380697 0.384245 0.036 0.412199C0.0124885 0.470489 0.000277911 0.532599 0 0.595316C0.000892987 0.785437 0.0946827 0.963513 0.252 1.07378L1.2 1.74127L8.652 6.98077C8.8603 7.12678 9.1397 7.12678 9.348 6.98077L16.8 1.74127L17.748 1.07378ZM18 12.4093V2.36741L10.044 7.94361C9.40493 8.38994 8.54601 8.378 7.92 7.91408L0.504 2.72183L0 2.36741V12.4093C0 12.7355 0.268629 13 0.6 13H17.4C17.7314 13 18 12.7355 18 12.4093Z" fill="black"/>
</svg>
