<svg width="18" height="18" viewBox="0 0 18 18" fill="none" xmlns="http://www.w3.org/2000/svg">
<path fill-rule="evenodd" clip-rule="evenodd" d="M12.58 0H5.42C4.64 0 4 0.606522 4 1.36957V16.6304C4 17.3935 4.64 18 5.42 18H12.58C13.36 18 14 17.3935 14 16.6304V1.36957C14 0.606522 13.36 0 12.58 0ZM10.2 0.782609C10.32 0.782609 10.4 0.86087 10.4 0.978261C10.4 1.09565 10.32 1.17391 10.2 1.17391C10.08 1.17391 10 1.09565 10 0.978261C10 0.86087 10.08 0.782609 10.2 0.782609ZM7.8 0.782609H9.4C9.5 0.782609 9.6 0.880435 9.6 0.978261C9.6 1.07609 9.5 1.17391 9.4 1.17391H7.8C7.7 1.17391 7.6 1.07609 7.6 0.978261C7.6 0.880435 7.7 0.782609 7.8 0.782609ZM13.2 16.4348C13.2 16.4348 13.22 17.2174 12.4 17.2174H8.8H5.6C4.78 17.2174 4.8 16.4348 4.8 16.4348V1.56522C4.8 0.763043 5.54 0.782609 5.54 0.782609H6.2C6.4 0.782609 6.46 1.11522 6.46 1.11522C6.58 1.60435 7 1.56522 7 1.56522H9H11C11 1.56522 11.42 1.60435 11.54 1.11522C11.54 1.11522 11.6 0.782609 11.8 0.782609H12.46C12.46 0.782609 13.2 0.782609 13.2 1.56522V16.4348Z" fill="black"/>
</svg>
