<svg width="18" height="18" viewBox="0 0 18 18" fill="none" xmlns="http://www.w3.org/2000/svg">
<path fill-rule="evenodd" clip-rule="evenodd" d="M1.73864 18H16.2614C17.2201 18 18 17.2201 18 16.2614V1.73864C18 0.779932 17.2201 0 16.2614 0H1.73864C0.779932 0 0 0.779932 0 1.73864V16.2614C0 17.2201 0.779932 18 1.73864 18ZM1.02273 1.73864C1.02273 1.34397 1.34386 1.02273 1.73864 1.02273H16.2614C16.6561 1.02273 16.9773 1.34397 16.9773 1.73864V16.2614C16.9773 16.656 16.6561 16.9773 16.2614 16.9773H1.73864C1.34386 16.9773 1.02273 16.656 1.02273 16.2614V1.73864ZM6.82998 5.07866C6.11969 5.07866 5.56159 5.13961 5.13542 5.21069V11.9683H6.01824V9.22868C6.22115 9.27941 6.46466 9.28964 6.72852 9.28964C7.59109 9.28964 8.34188 9.0359 8.81877 8.53875C9.16374 8.18356 9.3464 7.69664 9.3464 7.07758C9.3464 6.46875 9.11301 5.9716 8.74769 5.64699C8.34188 5.28157 7.70257 5.07866 6.82998 5.07866ZM6.74877 8.57925C6.45453 8.57925 6.21102 8.5589 6.01824 8.50838V5.8498C6.17042 5.8093 6.46466 5.77872 6.85023 5.77872C7.81415 5.77872 8.46358 6.21491 8.46358 7.1282C8.46358 8.05173 7.81415 8.57925 6.74877 8.57925ZM11.3454 11.4102C10.899 11.4102 10.4322 11.2276 10.1582 11.0652L9.9452 11.735C10.2902 11.9379 10.7874 12.0799 11.3252 12.0799C12.4718 12.0799 13.1516 11.4711 13.1516 10.5986C13.1516 9.86789 12.7051 9.44182 11.8629 9.12723C11.2237 8.87359 10.9396 8.69103 10.9396 8.28511C10.9396 7.9198 11.2237 7.61533 11.7513 7.61533C12.208 7.61533 12.5631 7.78797 12.7559 7.90957L12.9689 7.26014C12.7051 7.0877 12.2687 6.95587 11.7716 6.95587C10.7266 6.95587 10.0771 7.60531 10.0771 8.39669C10.0771 8.98517 10.4932 9.46197 11.386 9.78678C12.0355 10.0302 12.2891 10.2536 12.2891 10.6796C12.2891 11.0958 11.9846 11.4102 11.3454 11.4102Z" fill="black"/>
</svg>
