<svg width="18" height="18" viewBox="0 0 18 18" fill="none" xmlns="http://www.w3.org/2000/svg">
<path fill-rule="evenodd" clip-rule="evenodd" d="M3.1423 14.8263C4.37614 16.1601 6.16121 17 8.14398 17C11.6459 17 14.5312 14.381 14.8499 11.0465C18.1633 9.94067 18.0406 9.35065 17.9806 9.06594C17.8698 8.54023 17.3054 8.3061 14.5822 8.50337C14.33 7.70505 13.9246 6.96635 13.396 6.32303C13.8351 6.07698 14.2887 5.69615 14.7547 5.12817C15.5146 4.20191 14.9795 4.3195 14.0647 4.52054C13.175 4.71607 11.926 4.99054 11.1601 4.46028C10.8086 4.21676 10.4671 4.13817 10.149 4.16039C10.1054 4.14724 10.0614 4.13502 10.0173 4.12279L9.98426 4.1136C8.70095 3.18702 5.50788 1.27947 2.09821 2.28482C-0.827498 5.76263 0.92885 10.2787 1.49602 11.488C1.57792 11.9812 1.71688 12.4558 1.90532 12.906C1.63665 14.4714 0 14.7942 0 14.7942C0 14.7942 1.79026 15.6256 3.1423 14.8263ZM9.02187 4.55639C8.65667 4.73651 8.29981 4.91933 7.95739 5.10414C4.27757 7.09082 2.63313 8.96152 1.92533 10.0527C1.36558 8.38414 0.805263 5.44432 2.60497 3.08549C5.2205 2.43079 7.71263 3.6952 9.02187 4.55639ZM14.8698 10.0812C15.5272 9.84782 16.2009 9.57213 16.6391 9.3474C16.2844 9.32915 15.7123 9.33168 14.7949 9.39383C14.8321 9.62001 14.8572 9.84926 14.8698 10.0812ZM3.82231 14.2128C4.03484 13.9328 4.21809 13.5805 4.35446 13.1332C4.76824 11.7764 4.60554 11.1771 4.47382 10.6918C4.29204 10.0221 4.16924 9.56968 5.70206 7.64381C5.74264 7.59286 5.77748 7.54734 5.80935 7.5047C6.52474 6.99019 7.38022 6.44823 8.40598 5.89433C8.58237 5.79913 8.76377 5.70446 8.94702 5.61016C9.17917 5.69888 9.43159 5.82719 9.70235 5.96483C10.4879 6.36414 11.4279 6.84195 12.4753 6.65923C13.4021 7.67271 13.9539 9.00397 13.9539 10.4321C13.9539 12.3299 12.9906 14.0114 11.5168 15.0399C9.64166 15.147 8.75914 14.0343 8.44452 13.4942C8.72523 13.1656 8.93979 12.7501 8.89421 12.2617C8.87105 12.0133 8.64537 11.8309 8.39097 11.8527C8.1362 11.8753 7.9485 12.095 7.97147 12.3436C8.01909 12.8545 7.2344 13.3742 6.95609 13.516C6.72949 13.6313 6.6411 13.9037 6.75895 14.1247C6.84122 14.2795 7.00279 14.3686 7.17029 14.3686C7.24181 14.3686 7.31407 14.3523 7.38207 14.3183C7.42636 14.2961 7.56328 14.2239 7.73634 14.1093C8.15065 14.7478 8.90125 15.4693 10.0363 15.7865C9.44285 15.9865 8.80638 16.0967 8.14398 16.0967C6.42951 16.0967 4.88661 15.3685 3.82231 14.2128ZM8.62332 9.05365C8.62332 10.1809 9.51511 11.0981 10.6113 11.0981C11.7074 11.0981 12.5992 10.1809 12.5992 9.05365C12.5992 7.92636 11.7074 7.00934 10.6113 7.00934C9.5153 7.00934 8.62332 7.92636 8.62332 9.05365ZM9.54976 9.05365C9.54976 8.42443 10.0258 7.91263 10.6113 7.91263C11.1968 7.91263 11.6728 8.42443 11.6728 9.05365C11.6728 9.20071 11.6457 9.34089 11.5987 9.47006C11.4634 9.22455 11.1773 9.05365 10.8433 9.05365C10.3795 9.05365 10.0039 9.38082 10.0039 9.78386C10.0039 9.86805 10.0234 9.94736 10.0536 10.0225C9.75173 9.82108 9.54976 9.46284 9.54976 9.05365Z" fill="black"/>
</svg>
