<svg width="18" height="18" viewBox="0 0 18 18" fill="none" xmlns="http://www.w3.org/2000/svg">
<path fill-rule="evenodd" clip-rule="evenodd" d="M0.333333 0H17.6667C17.851 0 18 0.149333 18 0.333333V8.33333C18 8.51733 17.851 8.66667 17.6667 8.66667H0.333333C0.149333 8.66667 0 8.51733 0 8.33333V0.333333C0 0.149333 0.149333 0 0.333333 0ZM0.333333 9.33333H3.66667C3.85067 9.33333 4 9.48233 4 9.66667V13C4 13.1843 3.85067 13.3333 3.66667 13.3333H0.333333C0.149333 13.3333 0 13.1843 0 13V9.66667C0 9.48233 0.149333 9.33333 0.333333 9.33333ZM3.66667 14H0.333333C0.149333 14 0 14.149 0 14.3333V17.6667C0 17.851 0.149333 18 0.333333 18H3.66667C3.85067 18 4 17.851 4 17.6667V14.3333C4 14.149 3.85067 14 3.66667 14ZM5 9.33333H8.33333C8.51733 9.33333 8.66667 9.48233 8.66667 9.66667V13C8.66667 13.1843 8.51733 13.3333 8.33333 13.3333H5C4.816 13.3333 4.66667 13.1843 4.66667 13V9.66667C4.66667 9.48233 4.816 9.33333 5 9.33333ZM8.33333 14H5C4.816 14 4.66667 14.149 4.66667 14.3333V17.6667C4.66667 17.851 4.816 18 5 18H8.33333C8.51733 18 8.66667 17.851 8.66667 17.6667V14.3333C8.66667 14.149 8.51733 14 8.33333 14ZM9.66667 9.33333H17.6667C17.851 9.33333 18 9.48233 18 9.66667V17.6667C18 17.851 17.851 18 17.6667 18H9.66667C9.48233 18 9.33333 17.851 9.33333 17.6667V9.66667C9.33333 9.48233 9.48233 9.33333 9.66667 9.33333Z" fill="black"/>
</svg>
