<svg width="18" height="18" viewBox="0 0 18 18" fill="none" xmlns="http://www.w3.org/2000/svg">
<path fill-rule="evenodd" clip-rule="evenodd" d="M7.41057 0.134668C7.2981 0.190772 7.19541 0.261772 7.11463 0.342554L0.342554 7.11463C0.261341 7.19584 0.190273 7.29837 0.134236 7.41057C4.12091 7.33977 7.33953 4.12129 7.41057 0.134668ZM8.47059 0H9C13.9706 0 18 4.02944 18 9C18 13.9706 13.9706 18 9 18C4.02944 18 0 13.9706 0 9V8.47059C4.67818 8.47059 8.47059 4.67818 8.47059 0ZM8.81595 7.27313C8.04041 6.49759 6.78464 6.49607 6.00961 7.2711L5.94757 7.33314C5.17325 8.10746 5.17482 9.36469 5.9496 10.1395L8.62565 12.8155C8.8324 13.0223 9.1676 13.0223 9.37435 12.8155L12.0504 10.1395C12.8252 9.36469 12.8268 8.10746 12.0524 7.33314L11.9904 7.2711C11.2154 6.49607 9.95959 6.49759 9.18405 7.27313L9 7.45718L8.81595 7.27313ZM9 11.6925L6.6983 9.39078C6.3366 9.02907 6.33586 8.44225 6.69628 8.08184L6.75831 8.0198C7.11944 7.65868 7.7048 7.65938 8.06725 8.02183L8.62565 8.58023C8.8324 8.78698 9.1676 8.78698 9.37435 8.58023L9.93275 8.02183C10.2952 7.65938 10.8806 7.65868 11.2417 8.0198L11.3037 8.08184C11.6641 8.44225 11.6634 9.02907 11.3017 9.39078L9 11.6925Z" fill="black"/>
</svg>
