<svg width="18" height="19" viewBox="0 0 18 19" fill="none" xmlns="http://www.w3.org/2000/svg">
<path fill-rule="evenodd" clip-rule="evenodd" d="M16.5 9.00072H18C18.0063 12.9757 15.4002 16.4825 11.5923 17.623C7.78448 18.7634 3.67977 17.2665 1.50001 13.9425V16.0007H1.13267e-05V11.0007H5.00001V12.5007H2.38166C3.98762 15.5499 7.46676 17.1099 10.8117 16.2806C14.1567 15.4514 16.5043 12.4469 16.5 9.00072ZM16.5 2.00072V4.05889C14.3202 0.734905 10.2155 -0.76196 6.40767 0.378509C2.59982 1.51898 -0.00626912 5.02576 1.13267e-05 9.00072H1.50001C1.49574 5.5545 3.84333 2.55004 7.1883 1.72081C10.5333 0.891573 14.0124 2.45157 15.6184 5.50072H13V7.00072H18V2.00072H16.5Z" fill="black"/>
</svg>
