<svg width="18" height="18" viewBox="0 0 18 18" fill="none" xmlns="http://www.w3.org/2000/svg">
<path fill-rule="evenodd" clip-rule="evenodd" d="M0.8 6H8.2C8.32 6 8.4 6.08 8.4 6.2V11.2C8.4 11.32 8.32 11.4 8.2 11.4H0.8C0.68 11.4 0.6 11.32 0.6 11.2V6.2C0.6 6.08 0.68 6 0.8 6ZM10.58 7H14.08C14.14 7 14.2 7.04 14.2 7.12V11.84C14.2 11.92 14.12 12 14.02 12H10.58C10.48 12 10.4 11.92 10.4 11.84V7.16C10.4 7.08 10.48 7 10.58 7ZM0.2 12H8.8C8.92 12 9 11.92 9 11.8C9 11.68 8.92 11.6 8.8 11.6H0.2C0.08 11.6 0 11.68 0 11.8C0 11.92 0.08 12 0.2 12ZM17.8 8H15.8C15.68 8 15.6 8.08 15.6 8.2V11.8C15.6 11.92 15.68 12 15.8 12H17.8C17.92 12 18 11.92 18 11.8V8.2C18 8.08 17.92 8 17.8 8Z" fill="black"/>
</svg>
