<svg width="18" height="18" viewBox="0 0 18 18" fill="none" xmlns="http://www.w3.org/2000/svg">
<path fill-rule="evenodd" clip-rule="evenodd" d="M14.336 5.51784L14.5148 4.39205L15.5147 5.51784H14.336ZM13.9354 7.05023H15.6217L11.971 11.4528L13.9354 7.05023ZM3.98972 7.05023L5.94044 11.3465L2.37787 7.05023H3.98972ZM5.02827 4.89467L4.8122 3.53238H6.75324L5.02827 4.89467ZM12.8892 4.87884L11.1745 3.53238H13.1033L12.8892 4.87884ZM6.70941 5.51784L8.95978 3.74079L11.2239 5.51784H6.70941ZM12.2609 7.05023L8.99392 14.3715L5.66984 7.05023H12.2609ZM3.41337 4.47276L3.57949 5.51784H2.4854L3.41337 4.47276ZM17.8063 5.79367L14.6652 2.25693C14.5199 2.09348 14.3125 2 14.0939 2H8.95723H8.95672H3.90563C3.68753 2 3.48012 2.09348 3.33489 2.25693L0.193759 5.79367C-0.0579799 6.07665 -0.0651142 6.50112 0.176433 6.79279L8.41247 16.7237C8.41451 16.7262 8.41706 16.7283 8.4191 16.7303C8.42776 16.741 8.43897 16.7487 8.44814 16.7584C8.48433 16.7972 8.52357 16.8314 8.56637 16.8611C8.5837 16.8733 8.60153 16.883 8.61988 16.8938C8.66065 16.9173 8.70294 16.9367 8.74677 16.9525C8.76562 16.9591 8.78397 16.9663 8.80333 16.9714C8.86703 16.9888 8.93277 17 9.00003 17H9.00258C9.00513 17 9.00717 16.999 9.00972 16.999C9.07444 16.9985 9.13711 16.9877 9.19878 16.9709C9.21814 16.9658 9.23649 16.9581 9.25534 16.9515C9.30019 16.9356 9.34197 16.9157 9.38274 16.8922C9.40057 16.8815 9.41841 16.8718 9.43523 16.86C9.48007 16.8289 9.52135 16.7926 9.55906 16.7518C9.5667 16.7436 9.57536 16.7375 9.5825 16.7288C9.58403 16.7272 9.58607 16.7257 9.58759 16.7237L17.8231 6.79279C18.0652 6.50112 18.058 6.07665 17.8063 5.79367Z" fill="black"/>
</svg>
