<svg width="18" height="18" viewBox="0 0 18 18" fill="none" xmlns="http://www.w3.org/2000/svg">
<path fill-rule="evenodd" clip-rule="evenodd" d="M15.2828 0.306484C15.4666 0.115516 15.719 0.00533795 15.9842 0.000192492C16.2562 -0.00513787 16.5186 0.100431 16.711 0.29256C16.9033 0.484689 17.009 0.746798 17.0037 1.01846V5.01349C17.0015 5.56507 16.5521 6.01046 15.9998 6.00835H11.9978C11.6354 6.01627 11.297 5.82765 11.1134 5.51538C10.9298 5.2031 10.9298 4.81606 11.1134 4.50379C11.297 4.19151 11.6354 4.0029 11.9978 4.01082H13.8845C12.5946 2.75266 10.8553 2.01332 9.00173 2.01332C5.12371 2.01332 1.99589 5.13727 1.99589 9.01049C2.02832 9.38636 1.84587 9.7484 1.52429 9.94631C1.2027 10.1442 0.796892 10.1442 0.475308 9.94631C0.153724 9.7484 -0.0287226 9.38636 0.00370318 9.01049C0.00370318 4.05804 4.04319 0.0138197 9.00173 0.0138197C11.2524 0.0138197 13.3763 0.862481 15.0037 2.32153V1.01846C14.9985 0.75356 15.0989 0.497451 15.2828 0.306484ZM16.2815 8.28011C16.4671 8.0889 16.7214 7.97965 16.9881 7.97663C17.2587 7.97334 17.5192 8.07983 17.7099 8.27174C17.9006 8.46365 18.0052 8.72458 17.9998 8.99489C17.9998 13.9473 13.9603 17.9818 9.00173 17.9818C6.75443 17.9818 4.62844 17.1364 2.99981 15.6819V16.9791C3.00775 17.3412 2.81891 17.6791 2.50624 17.8625C2.19357 18.0458 1.80604 18.0458 1.49337 17.8625C1.1807 17.6791 0.991855 17.3412 0.999797 16.9791V12.9841C1.00034 12.7189 1.10647 12.4647 1.29479 12.2777C1.48311 12.0907 1.73816 11.9862 2.00372 11.9873H5.99588C6.54871 11.9873 6.99687 12.4349 6.99687 12.987C6.99687 13.5391 6.54871 13.9868 5.99588 13.9868H4.117C5.4068 15.2454 7.14727 15.9842 9.00173 15.9842C12.8798 15.9842 15.9998 12.8681 15.9998 8.99489C15.9945 8.72865 16.0959 8.47132 16.2815 8.28011Z" fill="black"/>
</svg>
