<svg xmlns="http://www.w3.org/2000/svg" viewBox="0 0 703.59 365.87"><path d="M214,579.94c-20.8,0-62-17.6-62-35.6,0-21.6,45.6-180.8,58.4-220,2-6,7.2-8.4,12.4-8.4,9.2,0,41.2,19.6,41.2,26.4a43.42,43.42,0,0,1-1.6,10c-4,12.8-50.8,170-50.8,188.8,0,2,4.4,4.4,6.8,4.4,14.8,0,33.2-24,52.8-60,0,0,3.6-7.2,8.8-7.2s13.6,6.4,13.6,11.2-5.2,14-5.2,14C266.75,543.54,242.75,579.94,214,579.94Z" transform="translate(-151.95 -315.94)" fill="#542c85"/><path d="M366.35,553.54s-36,26.4-52.8,26.4c-24.8,0-55.6-24.8-55.6-41.6,0-18.8,26.8-113.6,34.8-138.8a11.87,11.87,0,0,1,10.8-7.6c11.6,0,42.8,18.4,42.8,25.6a37.08,37.08,0,0,1-1.6,9.6c-2.8,10.4-27.2,91.2-27.2,109.6,0,2.4,1.6,4,3.2,4,16,0,41.2-27.6,44.8-40.4,10-32.4,23.2-84,28.4-100.8,1.6-5.6,5.2-7.6,10.4-7.6,12.8,0,42.8,18.4,42.8,25.6a37.08,37.08,0,0,1-1.6,9.6c-3.6,10.4-28.8,92.8-28.8,114,0,2,1.6,4.4,3.2,4.4,12.8,0,33.2-24,52.8-60,0,0,3.6-7.2,8.8-7.2s13.6,6.4,13.6,11.2-5.2,14-5.2,14c-22.4,40-45.6,76.4-74.4,76.4C397.55,579.94,369.15,565.14,366.35,553.54Z" transform="translate(-151.95 -315.94)" fill="#542c85"/><path d="M637.55,485.54s3.6-7.2,8.8-7.2,13.6,6.4,13.6,11.2-5.2,14-5.2,14c-22,40-60.8,76.4-120.8,76.4-40,0-86-42.8-86-67.6,0-20.4,35.6-38,35.6-38s36.8-56,50.4-78.4c2.4-4.4,10.4-9.2,16-9.2,8,0,33.6,18.4,33.6,25.6,0,38.8,14.8,70.8,14.8,100.8a49.67,49.67,0,0,1-8,26.4C602.35,531.14,617.15,521.54,637.55,485.54ZM508,510.74c0,20,10.8,34,15.6,34,7.2,0,16.4-7.2,16.4-21.6,0-28.8-5.2-43.2-5.2-68.4C534.75,454.74,508,490.74,508,510.74Z" transform="translate(-151.95 -315.94)" fill="#542c85"/><path d="M737.14,439.14c0-3.6-3.6-8-6.4-8-6,0-23.6,11.6-28.79,28.4-10.41,34-27.2,98.8-28.8,111.2-.8,6.4-8.8,9.2-14.4,9.2-13.6,0-38.8-12.4-38.8-23.2,0-14.4,48-196.8,59.59-232.4,1.61-6,8-8.4,12.41-8.4,12.39,0,40.39,20.4,40.39,27.2,0,2.8-1.2,6.8-2,10-9.6,33.6-15.59,54.4-15.59,54.4s25.59-18,46-18c15.6,0,37.6,18.8,37.6,33.6,0,18.8-24,95.6-24,116.8,0,2.4,3.2,6,5.6,6,12,0,33.6-24.4,53.2-60.4,0,0,3.6-7.2,8.8-7.2s13.6,6.4,13.6,11.2-5.2,14-5.2,14c-22,40-45.2,76.4-74.4,76.4-23.6,0-59.6-17.6-59.6-34.8C716.34,519.54,737.14,454.34,737.14,439.14Z" transform="translate(-151.95 -315.94)" fill="#542c85"/><path d="M221,611.61a2.76,2.76,0,0,1,.85,2.1,2.58,2.58,0,0,1-.85,2,3.11,3.11,0,0,1-2.15.75H198.1v61.3a2.82,2.82,0,0,1-.9,2.15,3.34,3.34,0,0,1-4.45,0,2.92,2.92,0,0,1-.85-2.15v-61.3H171.2a3,3,0,0,1-2.15-.8,2.73,2.73,0,0,1-.85-2.1,2.63,2.63,0,0,1,.85-2,3,3,0,0,1,2.15-.8h47.6A3,3,0,0,1,221,611.61Z" transform="translate(-151.95 -315.94)"/><path d="M344,611.66a3,3,0,0,1,.85,2.25v63.8a3.28,3.28,0,0,1-1,2.25,3.07,3.07,0,0,1-2.2.85,3.07,3.07,0,0,1-3.1-3.1v-29.8H297.9v29.8a3.39,3.39,0,0,1-1,2.2,3,3,0,0,1-2.2.9,3,3,0,0,1-2.25-.85,3,3,0,0,1-.85-2.25v-63.8a3,3,0,0,1,.9-2.25,3.25,3.25,0,0,1,2.3-.85,3.07,3.07,0,0,1,3.1,3.1v28.2h40.6v-28.2a2.94,2.94,0,0,1,.95-2.2,3.15,3.15,0,0,1,2.25-.9A3.08,3.08,0,0,1,344,611.66Z" transform="translate(-151.95 -315.94)"/><path d="M462.45,675.81a3,3,0,0,1,.85,2.1,2.76,2.76,0,0,1-.85,2.1,3,3,0,0,1-2.15.8H423.6a2.91,2.91,0,0,1-3-3v-64a2.91,2.91,0,0,1,3-3h36.7a2.91,2.91,0,0,1,3,3,2.76,2.76,0,0,1-.85,2.1,3,3,0,0,1-2.15.8H426.9v25.1h28.9a2.91,2.91,0,0,1,3,3,2.76,2.76,0,0,1-.85,2.1,3,3,0,0,1-2.15.8H426.9v27.2h33.4A2.83,2.83,0,0,1,462.45,675.81Z" transform="translate(-151.95 -315.94)"/><path d="M597.45,611.66a3,3,0,0,1,.85,2.15v64a2.82,2.82,0,0,1-.9,2.15,3.08,3.08,0,0,1-2.2.85,3.19,3.19,0,0,1-2.3-.85,2.82,2.82,0,0,1-.9-2.15v-55l-23.5,35.6a2.6,2.6,0,0,1-2.3,1.2H566a2.85,2.85,0,0,1-2.2-1.2l-23.5-35.8v55.2a2.91,2.91,0,0,1-3,3,2.73,2.73,0,0,1-2.1-.85,3,3,0,0,1-.8-2.15v-64a3,3,0,0,1,.85-2.1,2.82,2.82,0,0,1,2.15-.9,3.87,3.87,0,0,1,1.5.35,2.77,2.77,0,0,1,1.2,1l26.2,39.3,26.4-39.3a2.78,2.78,0,0,1,2.7-1.3A2.83,2.83,0,0,1,597.45,611.66Z" transform="translate(-151.95 -315.94)"/><path d="M716,675.81a3,3,0,0,1,.85,2.1A2.76,2.76,0,0,1,716,680a3,3,0,0,1-2.15.8H677.1a2.91,2.91,0,0,1-3-3v-64a2.91,2.91,0,0,1,3-3h36.7a2.91,2.91,0,0,1,3,3,2.76,2.76,0,0,1-.85,2.1,3,3,0,0,1-2.15.8H680.4v25.1h28.9a2.91,2.91,0,0,1,3,3,2.76,2.76,0,0,1-.85,2.1,3,3,0,0,1-2.15.8H680.4v27.2h33.4A2.85,2.85,0,0,1,716,675.81Z" transform="translate(-151.95 -315.94)"/><path d="M794.05,679.41a35.72,35.72,0,0,1-10.75-7.5,3,3,0,0,1-1.2-2.4,3.11,3.11,0,0,1,.95-2.2,2.92,2.92,0,0,1,2.15-1,3.09,3.09,0,0,1,2.2,1,25.21,25.21,0,0,0,19.5,8.6,20,20,0,0,0,12-3.4,10.47,10.47,0,0,0,4.75-8.9,10.91,10.91,0,0,0-2.35-7.15,17.62,17.62,0,0,0-6.15-4.65,82.87,82.87,0,0,0-9.7-3.7,58.28,58.28,0,0,1-10.75-4.2,19.64,19.64,0,0,1-7-6.15,16.56,16.56,0,0,1-2.7-9.75,16.09,16.09,0,0,1,2.85-9.4,19.16,19.16,0,0,1,8-6.45,28.35,28.35,0,0,1,11.85-2.35,31.91,31.91,0,0,1,11.45,2.05,20.64,20.64,0,0,1,8.55,5.85,4.85,4.85,0,0,1,1.5,2.9,2.81,2.81,0,0,1-1,2,3.11,3.11,0,0,1-2.2,1,2.29,2.29,0,0,1-1.7-.7,19.79,19.79,0,0,0-7.2-5.2,23,23,0,0,0-9.4-2q-7.3,0-11.9,3.25a11,11,0,0,0-.2,17.75,46.6,46.6,0,0,0,12.6,5.7,77,77,0,0,1,11.6,4.3,19.12,19.12,0,0,1,7.35,6.25q2.85,4,2.85,10.65a15.63,15.63,0,0,1-2.95,9.25,20,20,0,0,1-8.2,6.55,28.46,28.46,0,0,1-12,2.4A31.86,31.86,0,0,1,794.05,679.41Z" transform="translate(-151.95 -315.94)"/></svg>