<svg xmlns="http://www.w3.org/2000/svg" viewBox="0 0 703.59 426.66"><path d="M214.18,524.41c-20.8,0-62-17.6-62-35.6,0-21.6,45.6-180.8,58.4-220,2-6,7.2-8.4,12.4-8.4,9.2,0,41.2,19.6,41.2,26.4a43.42,43.42,0,0,1-1.6,10c-4,12.8-50.8,170-50.8,188.8,0,2,4.4,4.4,6.8,4.4,14.8,0,33.2-24,52.8-60,0,0,3.6-7.2,8.8-7.2s13.6,6.4,13.6,11.2-5.2,14-5.2,14C267,488,243,524.41,214.18,524.41Z" transform="translate(-152.18 -260.41)" fill="#542c85"/><path d="M366.58,498s-36,26.4-52.8,26.4c-24.8,0-55.6-24.8-55.6-41.6,0-18.8,26.8-113.6,34.8-138.8a11.87,11.87,0,0,1,10.8-7.6c11.6,0,42.8,18.4,42.8,25.6a37.08,37.08,0,0,1-1.6,9.6c-2.8,10.4-27.2,91.2-27.2,109.6,0,2.4,1.6,4,3.2,4,16,0,41.2-27.6,44.8-40.4,10-32.4,23.2-84,28.4-100.8,1.6-5.6,5.2-7.6,10.4-7.6,12.8,0,42.8,18.4,42.8,25.6a37.08,37.08,0,0,1-1.6,9.6c-3.6,10.4-28.8,92.8-28.8,114,0,2,1.6,4.4,3.2,4.4,12.8,0,33.2-24,52.8-60,0,0,3.6-7.2,8.8-7.2s13.6,6.4,13.6,11.2-5.2,14-5.2,14c-22.4,40-45.6,76.4-74.4,76.4C397.78,524.41,369.38,509.61,366.58,498Z" transform="translate(-152.18 -260.41)" fill="#542c85"/><path d="M637.77,430s3.6-7.2,8.8-7.2,13.6,6.4,13.6,11.2-5.2,14-5.2,14c-22,40-60.8,76.4-120.79,76.4-40,0-86-42.8-86-67.6,0-20.4,35.6-38,35.6-38s36.8-56,50.4-78.4c2.4-4.4,10.4-9.2,16-9.2,8,0,33.6,18.4,33.6,25.6,0,38.8,14.8,70.8,14.8,100.8a49.67,49.67,0,0,1-8,26.4C602.57,475.61,617.37,466,637.77,430Zm-129.59,25.2c0,20,10.8,34,15.6,34,7.2,0,16.4-7.2,16.4-21.6,0-28.8-5.2-43.2-5.2-68.4C535,399.21,508.18,435.21,508.18,455.21Z" transform="translate(-152.18 -260.41)" fill="#542c85"/><path d="M737.37,383.61c0-3.6-3.6-8-6.4-8-6,0-23.6,11.6-28.8,28.4-10.4,34-27.2,98.8-28.8,111.2-.8,6.4-8.8,9.2-14.4,9.2-13.6,0-38.8-12.4-38.8-23.2,0-14.4,48-196.8,59.6-232.4,1.6-6,8-8.4,12.4-8.4,12.4,0,40.4,20.4,40.4,27.2,0,2.8-1.2,6.8-2,10C721,331.21,715,352,715,352s25.6-18,46-18c15.6,0,37.6,18.8,37.6,33.6,0,18.8-24,95.6-24,116.8,0,2.4,3.2,6,5.6,6,12,0,33.6-24.4,53.2-60.4,0,0,3.6-7.2,8.8-7.2s13.6,6.4,13.6,11.2-5.2,14-5.2,14c-22,40-45.2,76.4-74.4,76.4-23.6,0-59.6-17.6-59.6-34.8C716.57,464,737.37,398.81,737.37,383.61Z" transform="translate(-152.18 -260.41)" fill="#542c85"/><path d="M235.64,587.14a7.93,7.93,0,0,1,2.45,6.05,7.68,7.68,0,0,1-2.45,6,9.06,9.06,0,0,1-6.34,2.23H206.69v75.46a8.18,8.18,0,0,1-2.73,6.27,9.62,9.62,0,0,1-6.77,2.51,9.08,9.08,0,0,1-6.62-2.51,8.39,8.39,0,0,1-2.6-6.27V601.39h-22.6a8.84,8.84,0,0,1-6.34-2.3,7.92,7.92,0,0,1-2.45-6.05,7.64,7.64,0,0,1,2.52-5.9,8.93,8.93,0,0,1,6.27-2.31H229.3A8.88,8.88,0,0,1,235.64,587.14Z" transform="translate(-152.18 -260.41)" fill="#fff"/><path d="M360.92,587.28a8.61,8.61,0,0,1,2.45,6.34v83.23a8.39,8.39,0,0,1-2.6,6.27,9.09,9.09,0,0,1-6.62,2.51,8.56,8.56,0,0,1-6.19-2.51,8.38,8.38,0,0,1-2.59-6.27V643.3H299.43v33.55a8.16,8.16,0,0,1-2.74,6.27,9,9,0,0,1-6.33,2.51,8.68,8.68,0,0,1-6.41-2.51,8.51,8.51,0,0,1-2.52-6.27V593.62a8.4,8.4,0,0,1,2.59-6.27,9.16,9.16,0,0,1,6.63-2.52,8.63,8.63,0,0,1,6.19,2.52,8.4,8.4,0,0,1,2.59,6.27v33.12h45.94V593.62a8.2,8.2,0,0,1,2.73-6.27,9.12,9.12,0,0,1,6.34-2.52A8.79,8.79,0,0,1,360.92,587.28Z" transform="translate(-152.18 -260.41)" fill="#fff"/><path d="M476.48,671.59a8,8,0,0,1,2.52,5.84,7.62,7.62,0,0,1-2.52,5.9,8.92,8.92,0,0,1-6.27,2.3H422a8.59,8.59,0,0,1-8.78-8.78V593.62a8.61,8.61,0,0,1,8.78-8.79h48.24a8.81,8.81,0,0,1,6.27,2.38,8,8,0,0,1,2.52,6.12,7.51,7.51,0,0,1-2.45,5.83,9,9,0,0,1-6.34,2.23h-39v24.49h32.54a8.8,8.8,0,0,1,6.27,2.37,8.07,8.07,0,0,1,2.52,6.12,7.51,7.51,0,0,1-2.45,5.83,9.06,9.06,0,0,1-6.34,2.23H431.19v26.65h39A8.54,8.54,0,0,1,476.48,671.59Z" transform="translate(-152.18 -260.41)" fill="#fff"/><path d="M617.45,587.21a8.26,8.26,0,0,1,2.67,6.26v83.38a8.5,8.5,0,0,1-8.93,8.78,9,9,0,0,1-6.55-2.44,8.45,8.45,0,0,1-2.52-6.34v-58l-23.76,36.29a12.67,12.67,0,0,1-3.32,2.81,6.71,6.71,0,0,1-3.88.93,6.47,6.47,0,0,1-3.75-.93,12.47,12.47,0,0,1-3.31-2.81l-23.76-37.59v59.33a8.9,8.9,0,0,1-2.3,6.34,7.94,7.94,0,0,1-6,2.44,7.65,7.65,0,0,1-5.91-2.51,9,9,0,0,1-2.3-6.27V593.47a8.37,8.37,0,0,1,2.66-6.19,8.85,8.85,0,0,1,6.41-2.59,9.59,9.59,0,0,1,4.32,1.08,8.38,8.38,0,0,1,3.31,2.81l31.4,48.24,32.25-48.24a8.77,8.77,0,0,1,3.1-2.81,8,8,0,0,1,4-1.08A8.82,8.82,0,0,1,617.45,587.21Z" transform="translate(-152.18 -260.41)" fill="#fff"/><path d="M733.23,671.59a8.08,8.08,0,0,1,2.52,5.84,7.66,7.66,0,0,1-2.52,5.9,8.94,8.94,0,0,1-6.27,2.3H678.72a8.59,8.59,0,0,1-8.78-8.78V593.62a8.61,8.61,0,0,1,8.78-8.79H727a8.82,8.82,0,0,1,6.27,2.38,8.07,8.07,0,0,1,2.52,6.12,7.51,7.51,0,0,1-2.45,5.83,9.06,9.06,0,0,1-6.34,2.23h-39v24.49h32.54a8.8,8.8,0,0,1,6.27,2.37,8.07,8.07,0,0,1,2.52,6.12,7.51,7.51,0,0,1-2.45,5.83,9.06,9.06,0,0,1-6.34,2.23H687.94v26.65h39A8.56,8.56,0,0,1,733.23,671.59Z" transform="translate(-152.18 -260.41)" fill="#fff"/><path d="M794.5,684.48a42.59,42.59,0,0,1-15.12-8.78c-2.6-2.31-3.89-4.85-3.89-7.63a8.12,8.12,0,0,1,2.45-5.84,8,8,0,0,1,5.9-2.52,7.66,7.66,0,0,1,4.9,1.73A42,42,0,0,0,800,668.35a35.25,35.25,0,0,0,13,2.16,25.9,25.9,0,0,0,13.89-3.59q5.83-3.6,5.84-8.93a11.46,11.46,0,0,0-5.76-10.16q-5.76-3.66-18.29-5.54-31.54-4.6-31.54-29.37a26.58,26.58,0,0,1,4.75-15.77,30.06,30.06,0,0,1,13-10.23,45.93,45.93,0,0,1,18.29-3.53,52.47,52.47,0,0,1,17.07,2.74,41.78,41.78,0,0,1,13.32,7.2q4.17,3.31,4.17,7.63a8.07,8.07,0,0,1-2.45,5.83,7.73,7.73,0,0,1-5.76,2.52,6.31,6.31,0,0,1-3.88-1.29,38.31,38.31,0,0,0-10.44-5.55,34.87,34.87,0,0,0-12-2.51q-9.08,0-14,3.38t-5,8.85a10.32,10.32,0,0,0,5.12,9.36q5.1,3.18,16.05,5.19,12.39,2.16,19.8,5.54a25.22,25.22,0,0,1,11.16,9.22q3.75,5.84,3.75,15.48a25.84,25.84,0,0,1-5.12,15.91,32.75,32.75,0,0,1-13.6,10.51,45.59,45.59,0,0,1-18.29,3.68A60.09,60.09,0,0,1,794.5,684.48Z" transform="translate(-152.18 -260.41)" fill="#fff"/></svg>